<svg xmlns="http://www.w3.org/2000/svg" xmlns:xlink="http://www.w3.org/1999/xlink" width="1080" zoomAndPan="magnify" viewBox="0 0 810 809.999993" height="1080" preserveAspectRatio="xMidYMid meet" version="1.0"><defs><filter x="0%" y="0%" width="100%" height="100%" id="2e38af0111"><feColorMatrix values="0 0 0 0 1 0 0 0 0 1 0 0 0 0 1 0 0 0 1 0" color-interpolation-filters="sRGB"/></filter><g/><mask id="905fdd656c"><g filter="url(#2e38af0111)"><rect x="-81" width="972" fill="#000000" y="-80.999999" height="971.999992" fill-opacity="0.2196"/></g></mask><clipPath id="895254a3d5"><path d="M 0.410156 0.558594 L 256.476562 0.558594 L 256.476562 168.832031 L 0.410156 168.832031 Z M 0.410156 0.558594 " clip-rule="nonzero"/></clipPath><clipPath id="19826acef2"><rect x="0" width="257" y="0" height="169"/></clipPath><mask id="f7a517e589"><g filter="url(#2e38af0111)"><rect x="-81" width="972" fill="#000000" y="-80.999999" height="971.999992" fill-opacity="0.2"/></g></mask><clipPath id="391483c594"><rect x="0" width="260" y="0" height="274"/></clipPath></defs><g fill="#000000" fill-opacity="1"><g transform="translate(88.150233, 447.634006)"><g><path d="M 134.582031 -134.097656 C 130.203125 -140.667969 120.222656 -145.777344 114.140625 -138.234375 C 112.4375 -136.285156 112.191406 -133.121094 110.488281 -131.417969 C 109.027344 -129.714844 107.082031 -128.253906 105.867188 -125.578125 C 104.160156 -122.414062 102.703125 -119.25 100.753906 -116.332031 C 92.722656 -104.40625 84.691406 -91.992188 76.417969 -80.066406 L 64.734375 -63.519531 C 63.761719 -62.300781 54.269531 -48.429688 54.515625 -48.429688 C 55 -48.1875 55.976562 -49.402344 56.949219 -50.378906 C 52.082031 -44.535156 46.484375 -38.695312 40.886719 -32.855469 C 39.183594 -30.90625 28.71875 -18.496094 25.066406 -20.6875 C 22.632812 -22.148438 24.335938 -30.421875 24.582031 -32.613281 C 25.796875 -42.101562 27.988281 -51.59375 30.421875 -60.84375 C 35.53125 -81.042969 43.320312 -100.753906 53.054688 -119.25 C 57.679688 -128.011719 62.789062 -136.53125 68.628906 -144.5625 C 71.308594 -148.210938 73.984375 -151.863281 77.148438 -155.269531 C 79.824219 -157.945312 84.449219 -160.867188 87.125 -164.03125 C 85.179688 -162.082031 81.285156 -159.894531 79.582031 -158.191406 C 75.929688 -154.78125 72.765625 -151.132812 69.847656 -147.238281 C 64.007812 -139.449219 58.652344 -131.417969 54.027344 -122.902344 C 61.328125 -136.773438 70.089844 -150.644531 81.773438 -161.109375 C 85.910156 -165.003906 90.777344 -168.410156 96.128906 -170.359375 C 100.023438 -171.816406 102.945312 -172.304688 105.378906 -171.332031 C 106.839844 -170.359375 108.300781 -168.410156 109.273438 -165.492188 C 108.785156 -165.976562 108.054688 -166.707031 107.324219 -167.925781 C 108.054688 -166.464844 108.542969 -164.761719 109.027344 -163.300781 C 109.273438 -162.328125 111.460938 -154.539062 111.949219 -154.78125 C 112.4375 -155.027344 111.707031 -157.460938 111.707031 -157.703125 C 113.167969 -152.105469 115.113281 -149.914062 121.199219 -153.808594 C 123.875 -155.511719 128.011719 -158.917969 128.011719 -162.328125 C 128.253906 -166.464844 122.902344 -170.359375 120.222656 -172.792969 C 113.410156 -178.632812 104.160156 -184.960938 95.15625 -186.90625 C 90.289062 -187.878906 84.9375 -188.855469 80.066406 -187.152344 C 70.578125 -183.742188 63.03125 -175.710938 56.949219 -168.167969 C 49.890625 -159.40625 43.078125 -150.402344 37.480469 -140.667969 L 30.175781 -126.308594 C 28.472656 -122.902344 24.09375 -117.789062 23.851562 -113.894531 C 23.851562 -113.894531 24.824219 -115.113281 25.554688 -116.085938 C 23.605469 -112.191406 21.660156 -108.300781 20.199219 -104.40625 C 19.957031 -104.648438 21.171875 -107.8125 21.171875 -107.8125 C 19.46875 -108.054688 12.898438 -91.507812 12.167969 -90.046875 C 8.761719 -82.015625 5.839844 -73.742188 4.378906 -64.980469 C 2.675781 -56.460938 0.242188 -48.1875 0 -39.425781 C 0 -35.289062 0.242188 -30.90625 1.460938 -26.769531 C 1.703125 -25.066406 2.191406 -23.121094 3.164062 -21.417969 C 3.40625 -21.417969 5.355469 -17.277344 4.625 -19.710938 L 7.542969 -14.601562 C 7.542969 -14.601562 5.355469 -16.792969 5.109375 -17.523438 C 5.355469 -16.304688 8.273438 -13.386719 8.273438 -13.386719 C 12.167969 -7.300781 19.46875 1.21875 27.5 0.730469 C 36.261719 0.242188 44.535156 -13.140625 49.160156 -19.226562 C 63.519531 -39.425781 76.90625 -60.84375 89.804688 -81.773438 L 87.855469 -74.957031 C 87.613281 -75.199219 88.34375 -76.90625 87.855469 -76.90625 C 85.421875 -77.148438 81.042969 -56.460938 81.042969 -54.757812 C 80.554688 -50.132812 80.066406 -45.753906 79.09375 -41.128906 C 78.609375 -37.964844 77.878906 -35.046875 77.632812 -31.882812 C 77.632812 -31.636719 77.878906 -27.257812 78.363281 -27.257812 C 78.121094 -27.015625 78.363281 -26.527344 78.363281 -26.039062 C 78.363281 -26.285156 78.121094 -26.527344 78.121094 -26.769531 C 77.390625 -26.527344 77.878906 -19.226562 77.878906 -18.253906 C 77.148438 -14.117188 76.417969 -10.464844 76.417969 -6.085938 C 76.90625 3.894531 80.3125 14.84375 88.097656 21.902344 C 92.480469 25.554688 98.078125 27.742188 103.917969 27.742188 C 110.976562 27.742188 114.625 23.605469 118.519531 18.496094 C 120.953125 15.574219 131.417969 -11.195312 122.65625 -7.300781 C 120.222656 -6.328125 117.304688 -0.488281 115.601562 1.460938 C 113.167969 4.378906 108.300781 11.195312 103.917969 11.925781 C 103.1875 11.925781 102.457031 12.65625 101.726562 12.167969 C 100.269531 11.195312 98.5625 0.488281 98.320312 0.488281 C 97.835938 1.460938 97.835938 2.433594 97.835938 3.40625 C 97.105469 -3.894531 99.050781 -13.140625 100.023438 -21.171875 C 101.242188 -31.152344 102.214844 -41.371094 103.917969 -51.59375 C 105.378906 -61.570312 108.054688 -71.550781 111.460938 -81.285156 C 112.191406 -83.71875 121.199219 -107.324219 122.902344 -109.273438 C 120.953125 -108.054688 115.113281 -93.941406 112.191406 -86.152344 C 116.574219 -98.320312 121.683594 -110.003906 128.984375 -120.710938 C 128.5 -119.738281 127.769531 -118.765625 128.011719 -118.765625 C 128.984375 -118.277344 134.339844 -126.796875 133.851562 -127.039062 C 133.367188 -127.039062 133.121094 -126.796875 132.878906 -126.550781 C 134.582031 -128.742188 137.015625 -130.203125 134.582031 -134.097656 Z M 25.796875 -54.027344 C 28.230469 -71.0625 33.339844 -88.585938 40.15625 -104.40625 C 45.996094 -118.277344 53.054688 -131.175781 60.597656 -144.074219 C 64.734375 -151.375 70.578125 -160.136719 78.121094 -166.222656 C 71.550781 -160.625 66.195312 -153.078125 62.300781 -146.265625 C 54.269531 -133.121094 47.945312 -119.25 42.347656 -104.890625 C 36.503906 -89.558594 31.636719 -73.253906 27.742188 -57.433594 C 25.796875 -49.402344 24.09375 -41.371094 23.605469 -33.339844 L 23.121094 -28.960938 L 23.121094 -29.933594 C 23.605469 -37.964844 24.824219 -46.238281 25.796875 -54.027344 Z M 80.3125 -16.792969 C 80.3125 -21.902344 80.554688 -26.285156 81.773438 -31.152344 C 82.257812 -32.613281 82.746094 -34.316406 83.476562 -36.019531 C 82.988281 -32.367188 83.230469 -28.230469 82.988281 -24.335938 C 82.5 -19.710938 81.527344 -15.332031 81.042969 -10.707031 C 80.796875 -8.03125 80.554688 -5.355469 80.796875 -2.675781 C 80.3125 -7.300781 80.066406 -11.925781 80.3125 -16.792969 Z M 44.050781 -102.214844 L 43.5625 -101.484375 L 44.050781 -102.703125 Z M 82.257812 -169.382812 L 79.339844 -167.195312 C 80.3125 -167.925781 81.285156 -168.898438 82.257812 -169.382812 Z M 105.621094 -170.84375 L 106.59375 -168.898438 C 106.109375 -169.628906 105.621094 -170.359375 105.621094 -170.84375 Z M 107.324219 -168.167969 L 106.59375 -168.898438 C 106.839844 -168.410156 107.324219 -168.167969 107.324219 -168.167969 Z M 111.460938 -84.207031 L 112.191406 -86.152344 Z M 111.460938 -84.207031 "/></g></g></g><g fill="#000000" fill-opacity="1"><g transform="translate(215.17858, 447.634006)"><g><path d="M 129.714844 -183.5 C 122.171875 -181.308594 114.625 -172.0625 109.273438 -166.707031 C 105.867188 -163.542969 102.457031 -160.136719 99.292969 -156.484375 C 97.105469 -154.050781 91.507812 -149.183594 91.019531 -145.777344 C 91.261719 -145.535156 91.261719 -145.535156 91.507812 -145.535156 L 88.097656 -141.152344 C 87.855469 -140.910156 90.046875 -144.5625 90.289062 -144.804688 C 89.074219 -144.316406 87.125 -139.9375 87.125 -139.9375 C 80.3125 -131.175781 72.765625 -123.144531 66.441406 -113.894531 C 59.382812 -103.429688 53.542969 -92.722656 47.945312 -81.527344 C 50.863281 -92.722656 55 -103.429688 59.136719 -114.140625 L 53.296875 -101.726562 L 55.730469 -107.324219 C 47.699219 -92.480469 40.886719 -76.90625 36.019531 -60.84375 C 45.753906 -93.695312 59.382812 -128.011719 80.796875 -163.300781 C 80.066406 -161.839844 79.339844 -159.894531 79.582031 -159.894531 C 80.554688 -159.648438 85.421875 -169.140625 84.691406 -169.382812 L 83.960938 -168.898438 C 85.421875 -171.574219 86.152344 -173.035156 84.691406 -176.929688 C 83.230469 -180.824219 79.582031 -187.636719 74.472656 -185.445312 C 71.308594 -184.230469 68.628906 -178.390625 67.414062 -175.957031 C 66.683594 -174.738281 66.441406 -172.792969 65.710938 -171.816406 C 64.734375 -170.359375 63.03125 -169.628906 61.570312 -167.679688 C 58.410156 -162.8125 56.21875 -156.972656 54.027344 -151.617188 C 52.8125 -148.699219 39.425781 -119.738281 39.914062 -119.492188 C 40.398438 -119.738281 40.640625 -120.222656 40.886719 -120.710938 C 40.15625 -118.519531 39.183594 -116.332031 38.207031 -114.140625 C 37.964844 -114.382812 38.9375 -116.085938 38.453125 -116.085938 C 36.261719 -116.574219 28.960938 -96.375 28.472656 -94.425781 C 27.5 -89.804688 26.285156 -85.664062 24.335938 -81.042969 C 23.121094 -78.121094 21.902344 -75.199219 20.929688 -72.28125 C 20.929688 -72.035156 19.710938 -65.953125 20.6875 -68.144531 C 20.6875 -67.414062 20.441406 -66.925781 20.199219 -66.195312 C 20.199219 -66.441406 20.199219 -66.925781 19.957031 -67.167969 C 19.46875 -66.925781 18.007812 -59.625 17.523438 -58.652344 C 15.820312 -55 13.871094 -51.351562 12.410156 -47.457031 C 8.761719 -37.234375 7.058594 -26.769531 4.625 -16.0625 C 2.921875 -8.03125 -2.433594 4.867188 1.21875 12.898438 C 4.625 20.441406 16.304688 19.957031 21.660156 14.359375 C 21.660156 14.84375 21.902344 15.089844 22.148438 15.332031 C 24.582031 -2.921875 31.636719 -21.417969 38.9375 -38.453125 C 40.398438 -35.773438 39.667969 -34.558594 40.640625 -31.394531 C 41.859375 -26.527344 45.023438 -22.390625 47.214844 -18.007812 C 48.1875 -16.0625 59.136719 5.355469 59.625 5.109375 C 59.867188 4.625 59.625 4.136719 59.625 3.894531 C 60.355469 5.597656 61.328125 7.058594 62.300781 8.761719 C 62.058594 8.761719 61.570312 7.542969 61.085938 7.789062 C 59.136719 9.246094 69.359375 23.605469 70.578125 24.582031 C 73.253906 27.742188 75.6875 30.664062 77.878906 33.828125 C 79.339844 35.773438 80.554688 37.722656 82.257812 39.183594 C 82.5 39.425781 85.421875 41.617188 84.9375 40.640625 C 85.179688 40.886719 85.664062 41.128906 85.910156 41.617188 C 85.910156 41.617188 85.664062 41.371094 85.421875 41.371094 C 85.179688 42.101562 96.859375 53.054688 97.835938 53.785156 C 102.214844 56.460938 107.082031 58.164062 112.191406 57.679688 C 126.066406 56.460938 136.773438 44.535156 144.5625 34.558594 C 146.507812 32.125 147.480469 30.175781 147.238281 27.5 C 146.75 20.929688 144.316406 24.09375 142.128906 26.527344 C 137.988281 30.90625 130.203125 35.773438 123.875 35.773438 C 121.441406 36.019531 119.007812 35.046875 116.574219 34.070312 C 115.601562 33.585938 107.082031 28.472656 107.082031 28.71875 C 107.324219 29.203125 107.570312 29.933594 108.054688 30.421875 C 103.917969 27.015625 99.539062 20.929688 95.644531 16.550781 L 78.851562 -2.675781 C 76.660156 -5.109375 61.085938 -27.257812 54.269531 -38.453125 L 62.058594 -24.582031 C 57.679688 -31.394531 53.785156 -38.453125 49.890625 -45.753906 C 62.058594 -45.023438 76.660156 -54.515625 86.640625 -60.84375 C 95.644531 -66.925781 102.457031 -76.660156 110.246094 -85.179688 C 125.820312 -101.484375 140.421875 -121.441406 144.5625 -144.316406 C 138.964844 -112.679688 119.980469 -87.855469 96.375 -67.414062 C 104.160156 -69.359375 111.949219 -78.363281 117.304688 -83.960938 C 123.386719 -89.804688 128.742188 -96.617188 133.851562 -103.429688 C 139.695312 -111.460938 144.5625 -120.222656 147.96875 -129.714844 C 149.429688 -133.367188 154.539062 -144.074219 153.566406 -148.941406 C 153.566406 -148.941406 152.835938 -147.238281 152.347656 -146.019531 C 153.078125 -150.160156 153.566406 -154.050781 153.320312 -158.433594 C 153.566406 -157.460938 154.050781 -156 153.808594 -155.757812 C 154.296875 -156 154.050781 -159.164062 154.050781 -160.378906 C 154.050781 -160.378906 153.808594 -162.082031 154.050781 -161.597656 C 153.078125 -173.277344 142.371094 -187.152344 129.714844 -183.5 Z M 129.472656 -153.808594 C 129.230469 -152.835938 129.230469 -153.078125 129.472656 -153.566406 C 128.253906 -136.773438 118.765625 -120.222656 109.273438 -106.839844 C 104.40625 -99.78125 98.808594 -93.210938 92.964844 -86.882812 C 90.289062 -84.207031 87.371094 -81.527344 84.449219 -79.09375 C 82.257812 -76.90625 77.632812 -74.472656 75.445312 -71.792969 C 77.390625 -73.742188 81.773438 -76.175781 83.71875 -77.632812 C 87.613281 -81.042969 91.507812 -84.9375 95.15625 -88.585938 C 100.996094 -94.914062 106.59375 -101.484375 111.460938 -108.542969 C 96.617188 -86.394531 76.175781 -67.167969 51.59375 -56.949219 C 53.542969 -58.164062 58.410156 -60.597656 58.410156 -60.84375 C 57.921875 -61.328125 48.1875 -56.949219 47.214844 -56.460938 C 50.378906 -62.789062 53.542969 -69.117188 56.949219 -75.445312 C 57.921875 -76.90625 65.710938 -91.75 65.710938 -91.75 C 65.222656 -91.75 64.734375 -91.507812 64.492188 -90.777344 C 75.199219 -108.054688 89.316406 -125.335938 102.457031 -141.152344 C 106.59375 -146.019531 130.6875 -177.414062 129.472656 -154.050781 Z M 72.28125 -144.074219 C 72.765625 -145.046875 74.957031 -150.644531 74.472656 -149.671875 L 68.144531 -135.800781 C 69.601562 -138.476562 71.0625 -141.152344 72.28125 -144.074219 Z M 51.351562 -44.535156 C 50.863281 -44.292969 52.324219 -41.859375 54.269531 -38.453125 C 52.566406 -41.859375 51.105469 -44.535156 51.351562 -44.535156 Z M 68.628906 -14.84375 C 68.628906 -14.84375 68.628906 -15.089844 68.875 -14.601562 L 68.875 -14.359375 Z M 68.628906 -14.84375 C 68.386719 -14.84375 68.386719 -15.089844 68.144531 -15.332031 C 68.386719 -15.089844 68.386719 -14.84375 68.628906 -14.84375 Z M 62.300781 -87.371094 C 62.300781 -87.613281 62.546875 -87.613281 62.546875 -87.855469 C 62.546875 -87.613281 62.300781 -87.371094 62.300781 -87.371094 Z M 62.300781 -87.371094 "/></g></g></g><g fill="#000000" fill-opacity="1"><g transform="translate(346.343854, 447.634006)"><g><path d="M 134.582031 -134.097656 C 130.203125 -140.667969 120.222656 -145.777344 114.140625 -138.234375 C 112.4375 -136.285156 112.191406 -133.121094 110.488281 -131.417969 C 109.027344 -129.714844 107.082031 -128.253906 105.867188 -125.578125 C 104.160156 -122.414062 102.703125 -119.25 100.753906 -116.332031 C 92.722656 -104.40625 84.691406 -91.992188 76.417969 -80.066406 L 64.734375 -63.519531 C 63.761719 -62.300781 54.269531 -48.429688 54.515625 -48.429688 C 55 -48.1875 55.976562 -49.402344 56.949219 -50.378906 C 52.082031 -44.535156 46.484375 -38.695312 40.886719 -32.855469 C 39.183594 -30.90625 28.71875 -18.496094 25.066406 -20.6875 C 22.632812 -22.148438 24.335938 -30.421875 24.582031 -32.613281 C 25.796875 -42.101562 27.988281 -51.59375 30.421875 -60.84375 C 35.53125 -81.042969 43.320312 -100.753906 53.054688 -119.25 C 57.679688 -128.011719 62.789062 -136.53125 68.628906 -144.5625 C 71.308594 -148.210938 73.984375 -151.863281 77.148438 -155.269531 C 79.824219 -157.945312 84.449219 -160.867188 87.125 -164.03125 C 85.179688 -162.082031 81.285156 -159.894531 79.582031 -158.191406 C 75.929688 -154.78125 72.765625 -151.132812 69.847656 -147.238281 C 64.007812 -139.449219 58.652344 -131.417969 54.027344 -122.902344 C 61.328125 -136.773438 70.089844 -150.644531 81.773438 -161.109375 C 85.910156 -165.003906 90.777344 -168.410156 96.128906 -170.359375 C 100.023438 -171.816406 102.945312 -172.304688 105.378906 -171.332031 C 106.839844 -170.359375 108.300781 -168.410156 109.273438 -165.492188 C 108.785156 -165.976562 108.054688 -166.707031 107.324219 -167.925781 C 108.054688 -166.464844 108.542969 -164.761719 109.027344 -163.300781 C 109.273438 -162.328125 111.460938 -154.539062 111.949219 -154.78125 C 112.4375 -155.027344 111.707031 -157.460938 111.707031 -157.703125 C 113.167969 -152.105469 115.113281 -149.914062 121.199219 -153.808594 C 123.875 -155.511719 128.011719 -158.917969 128.011719 -162.328125 C 128.253906 -166.464844 122.902344 -170.359375 120.222656 -172.792969 C 113.410156 -178.632812 104.160156 -184.960938 95.15625 -186.90625 C 90.289062 -187.878906 84.9375 -188.855469 80.066406 -187.152344 C 70.578125 -183.742188 63.03125 -175.710938 56.949219 -168.167969 C 49.890625 -159.40625 43.078125 -150.402344 37.480469 -140.667969 L 30.175781 -126.308594 C 28.472656 -122.902344 24.09375 -117.789062 23.851562 -113.894531 C 23.851562 -113.894531 24.824219 -115.113281 25.554688 -116.085938 C 23.605469 -112.191406 21.660156 -108.300781 20.199219 -104.40625 C 19.957031 -104.648438 21.171875 -107.8125 21.171875 -107.8125 C 19.46875 -108.054688 12.898438 -91.507812 12.167969 -90.046875 C 8.761719 -82.015625 5.839844 -73.742188 4.378906 -64.980469 C 2.675781 -56.460938 0.242188 -48.1875 0 -39.425781 C 0 -35.289062 0.242188 -30.90625 1.460938 -26.769531 C 1.703125 -25.066406 2.191406 -23.121094 3.164062 -21.417969 C 3.40625 -21.417969 5.355469 -17.277344 4.625 -19.710938 L 7.542969 -14.601562 C 7.542969 -14.601562 5.355469 -16.792969 5.109375 -17.523438 C 5.355469 -16.304688 8.273438 -13.386719 8.273438 -13.386719 C 12.167969 -7.300781 19.46875 1.21875 27.5 0.730469 C 36.261719 0.242188 44.535156 -13.140625 49.160156 -19.226562 C 63.519531 -39.425781 76.90625 -60.84375 89.804688 -81.773438 L 87.855469 -74.957031 C 87.613281 -75.199219 88.34375 -76.90625 87.855469 -76.90625 C 85.421875 -77.148438 81.042969 -56.460938 81.042969 -54.757812 C 80.554688 -50.132812 80.066406 -45.753906 79.09375 -41.128906 C 78.609375 -37.964844 77.878906 -35.046875 77.632812 -31.882812 C 77.632812 -31.636719 77.878906 -27.257812 78.363281 -27.257812 C 78.121094 -27.015625 78.363281 -26.527344 78.363281 -26.039062 C 78.363281 -26.285156 78.121094 -26.527344 78.121094 -26.769531 C 77.390625 -26.527344 77.878906 -19.226562 77.878906 -18.253906 C 77.148438 -14.117188 76.417969 -10.464844 76.417969 -6.085938 C 76.90625 3.894531 80.3125 14.84375 88.097656 21.902344 C 92.480469 25.554688 98.078125 27.742188 103.917969 27.742188 C 110.976562 27.742188 114.625 23.605469 118.519531 18.496094 C 120.953125 15.574219 131.417969 -11.195312 122.65625 -7.300781 C 120.222656 -6.328125 117.304688 -0.488281 115.601562 1.460938 C 113.167969 4.378906 108.300781 11.195312 103.917969 11.925781 C 103.1875 11.925781 102.457031 12.65625 101.726562 12.167969 C 100.269531 11.195312 98.5625 0.488281 98.320312 0.488281 C 97.835938 1.460938 97.835938 2.433594 97.835938 3.40625 C 97.105469 -3.894531 99.050781 -13.140625 100.023438 -21.171875 C 101.242188 -31.152344 102.214844 -41.371094 103.917969 -51.59375 C 105.378906 -61.570312 108.054688 -71.550781 111.460938 -81.285156 C 112.191406 -83.71875 121.199219 -107.324219 122.902344 -109.273438 C 120.953125 -108.054688 115.113281 -93.941406 112.191406 -86.152344 C 116.574219 -98.320312 121.683594 -110.003906 128.984375 -120.710938 C 128.5 -119.738281 127.769531 -118.765625 128.011719 -118.765625 C 128.984375 -118.277344 134.339844 -126.796875 133.851562 -127.039062 C 133.367188 -127.039062 133.121094 -126.796875 132.878906 -126.550781 C 134.582031 -128.742188 137.015625 -130.203125 134.582031 -134.097656 Z M 25.796875 -54.027344 C 28.230469 -71.0625 33.339844 -88.585938 40.15625 -104.40625 C 45.996094 -118.277344 53.054688 -131.175781 60.597656 -144.074219 C 64.734375 -151.375 70.578125 -160.136719 78.121094 -166.222656 C 71.550781 -160.625 66.195312 -153.078125 62.300781 -146.265625 C 54.269531 -133.121094 47.945312 -119.25 42.347656 -104.890625 C 36.503906 -89.558594 31.636719 -73.253906 27.742188 -57.433594 C 25.796875 -49.402344 24.09375 -41.371094 23.605469 -33.339844 L 23.121094 -28.960938 L 23.121094 -29.933594 C 23.605469 -37.964844 24.824219 -46.238281 25.796875 -54.027344 Z M 80.3125 -16.792969 C 80.3125 -21.902344 80.554688 -26.285156 81.773438 -31.152344 C 82.257812 -32.613281 82.746094 -34.316406 83.476562 -36.019531 C 82.988281 -32.367188 83.230469 -28.230469 82.988281 -24.335938 C 82.5 -19.710938 81.527344 -15.332031 81.042969 -10.707031 C 80.796875 -8.03125 80.554688 -5.355469 80.796875 -2.675781 C 80.3125 -7.300781 80.066406 -11.925781 80.3125 -16.792969 Z M 44.050781 -102.214844 L 43.5625 -101.484375 L 44.050781 -102.703125 Z M 82.257812 -169.382812 L 79.339844 -167.195312 C 80.3125 -167.925781 81.285156 -168.898438 82.257812 -169.382812 Z M 105.621094 -170.84375 L 106.59375 -168.898438 C 106.109375 -169.628906 105.621094 -170.359375 105.621094 -170.84375 Z M 107.324219 -168.167969 L 106.59375 -168.898438 C 106.839844 -168.410156 107.324219 -168.167969 107.324219 -168.167969 Z M 111.460938 -84.207031 L 112.191406 -86.152344 Z M 111.460938 -84.207031 "/></g></g></g><g fill="#000000" fill-opacity="1"><g transform="translate(473.3722, 447.634006)"><g><path d="M 180.824219 41.128906 C 174.007812 43.5625 162.8125 44.78125 156 41.128906 C 148.941406 37.234375 151.617188 26.527344 153.078125 20.199219 C 156 7.058594 161.109375 -5.839844 166.222656 -18.496094 C 169.140625 -25.066406 171.816406 -31.882812 174.738281 -38.695312 C 175.46875 -40.15625 181.796875 -55.976562 181.554688 -55.976562 C 181.066406 -55.976562 180.335938 -55.246094 179.847656 -54.269531 C 188.367188 -72.035156 202.726562 -91.75 198.832031 -112.921875 C 197.128906 -121.925781 190.800781 -130.933594 180.824219 -130.6875 C 172.304688 -130.6875 164.515625 -124.359375 158.675781 -119.007812 C 147.726562 -109.273438 138.71875 -97.835938 130.203125 -86.152344 C 129.230469 -84.9375 125.335938 -79.09375 120.953125 -72.28125 C 123.144531 -75.929688 126.066406 -79.339844 128.5 -82.746094 C 118.277344 -68.386719 109.273438 -53.296875 100.511719 -38.207031 C 107.324219 -61.085938 118.519531 -82.257812 128.011719 -103.917969 C 131.664062 -111.949219 137.746094 -119.25 141.152344 -127.523438 C 144.804688 -136.53125 142.613281 -147.96875 136.53125 -155.511719 C 123.144531 -171.816406 103.917969 -143.585938 95.886719 -135.070312 C 79.582031 -117.789062 65.953125 -97.347656 53.296875 -77.632812 C 55 -82.988281 55.976562 -88.097656 57.921875 -93.453125 C 60.355469 -100.269531 63.03125 -106.839844 65.222656 -113.652344 C 67.65625 -120.710938 69.847656 -128.011719 72.035156 -135.070312 C 74.226562 -142.128906 76.660156 -151.617188 74.957031 -159.164062 C 73.742188 -164.515625 71.550781 -172.0625 67.65625 -176.199219 C 61.570312 -182.769531 53.054688 -182.28125 45.265625 -179.847656 C 38.207031 -177.660156 32.125 -174.25 26.527344 -169.628906 C 23.605469 -166.949219 20.929688 -164.273438 18.253906 -161.351562 L 15.820312 -157.945312 C 14.359375 -156 14.601562 -154.050781 13.871094 -152.347656 C 11.4375 -146.996094 7.300781 -142.855469 5.597656 -137.015625 C 3.894531 -130.445312 3.40625 -121.199219 7.300781 -115.355469 C 9.246094 -112.679688 12.410156 -110.734375 15.332031 -113.167969 C 17.035156 -114.871094 16.304688 -116.574219 16.550781 -118.519531 C 16.792969 -119.980469 17.523438 -123.875 18.496094 -126.308594 C 22.875 -138.234375 29.449219 -150.160156 38.207031 -159.40625 C 41.859375 -163.542969 46.238281 -167.4375 51.59375 -168.898438 C 58.894531 -170.601562 59.136719 -164.761719 58.164062 -158.917969 L 56.703125 -149.914062 L 56.703125 -152.347656 C 49.648438 -126.066406 36.019531 -101.726562 26.769531 -76.417969 C 22.148438 -64.007812 16.792969 -52.324219 11.683594 -40.15625 C 6.570312 -27.988281 0.730469 -13.628906 0 -0.242188 C -0.242188 4.378906 0.730469 9.003906 4.378906 11.925781 C 8.519531 15.332031 14.84375 15.574219 18.007812 11.195312 C 20.441406 7.789062 21.660156 1.703125 23.121094 -2.191406 C 25.554688 -8.519531 27.742188 -14.84375 30.421875 -20.929688 C 32.855469 -27.5 36.992188 -33.339844 40.640625 -39.425781 C 48.429688 -52.082031 56.21875 -64.734375 64.492188 -77.148438 C 72.28125 -89.074219 80.066406 -100.753906 88.585938 -111.949219 C 97.105469 -122.902344 105.621094 -134.097656 116.816406 -142.371094 C 118.519531 -143.585938 124.359375 -148.210938 126.796875 -147.238281 C 128.742188 -146.507812 126.796875 -142.855469 126.066406 -140.910156 C 121.925781 -129.714844 116.574219 -118.277344 110.488281 -108.054688 C 96.375 -84.207031 81.773438 -57.433594 76.417969 -29.933594 C 74.472656 -20.6875 74.472656 -11.4375 81.773438 -4.378906 C 89.316406 2.675781 91.992188 -3.40625 94.425781 -10.222656 C 96.375 -15.820312 100.511719 -20.6875 103.429688 -25.796875 C 107.570312 -32.613281 111.460938 -39.667969 115.84375 -46.726562 C 118.519531 -50.621094 120.46875 -55.976562 123.632812 -58.894531 C 128.742188 -64.007812 132.390625 -69.847656 136.53125 -75.6875 C 145.046875 -87.855469 153.566406 -99.539062 164.515625 -109.515625 C 167.195312 -111.949219 173.277344 -118.277344 177.414062 -117.304688 C 182.527344 -116.085938 176.929688 -108.054688 177.171875 -104.890625 L 178.875 -108.300781 C 177.414062 -103.917969 175.957031 -99.78125 174.25 -95.644531 C 174.007812 -95.886719 174.980469 -98.808594 174.980469 -98.808594 C 174.007812 -99.050781 168.898438 -87.371094 168.167969 -86.152344 C 164.515625 -78.609375 160.136719 -71.0625 157.460938 -63.03125 C 154.78125 -55.730469 152.105469 -48.917969 148.941406 -41.859375 L 143.585938 -29.691406 C 142.613281 -27.015625 139.695312 -21.171875 140.421875 -18.253906 C 140.667969 -18.253906 140.910156 -18.253906 140.910156 -18.496094 L 139.695312 -14.117188 C 139.9375 -15.089844 140.179688 -17.277344 140.179688 -17.523438 C 139.207031 -16.792969 138.964844 -11.925781 138.964844 -11.925781 C 133.121094 8.519531 130.6875 30.175781 144.804688 48.429688 C 151.617188 57.191406 159.648438 61.085938 170.359375 58.164062 C 175.46875 56.949219 180.335938 54.515625 184.472656 51.105469 C 186.90625 48.917969 194.453125 42.347656 193.476562 38.453125 C 192.746094 34.558594 183.257812 40.398438 180.824219 41.128906 Z M 148.453125 -31.882812 C 150.644531 -36.261719 152.59375 -40.886719 154.539062 -45.511719 C 156 -49.160156 156.972656 -55.730469 159.40625 -58.652344 C 160.136719 -58.410156 160.136719 -57.679688 159.40625 -56.21875 C 157.703125 -47.457031 152.835938 -37.722656 148.941406 -29.449219 C 145.777344 -22.390625 142.613281 -15.089844 140.179688 -7.789062 C 142.613281 -15.820312 144.5625 -23.851562 148.453125 -31.882812 Z M 40.640625 -104.648438 C 44.050781 -112.679688 46.726562 -121.199219 50.132812 -129.230469 C 51.59375 -132.636719 53.296875 -136.53125 54.515625 -140.421875 C 51.59375 -128.984375 47.945312 -117.546875 42.589844 -106.59375 C 37.480469 -96.128906 32.855469 -85.421875 28.472656 -74.472656 C 32.367188 -84.691406 36.261719 -94.671875 40.640625 -104.648438 Z M 118.519531 -68.628906 C 112.191406 -58.410156 105.378906 -47.945312 105.378906 -47.945312 C 106.109375 -47.699219 115.113281 -62.789062 118.519531 -68.628906 Z M 155.511719 -115.113281 L 146.507812 -105.621094 C 149.429688 -109.027344 152.347656 -112.191406 155.511719 -115.113281 Z M 138.234375 0 C 137.503906 -0.242188 137.503906 -0.730469 138.234375 -1.703125 C 138.71875 -1.460938 138.71875 -0.972656 138.234375 0 Z M 144.074219 -102.703125 L 144.5625 -103.429688 L 144.5625 -103.1875 C 145.046875 -104.160156 145.777344 -104.890625 146.019531 -105.136719 L 146.507812 -105.621094 L 146.019531 -104.890625 L 145.046875 -103.917969 C 145.046875 -103.917969 145.289062 -103.917969 145.289062 -104.160156 L 145.046875 -103.917969 L 144.804688 -103.429688 Z M 119.007812 -69.359375 L 119.980469 -70.820312 L 119.980469 -70.578125 Z M 118.519531 -68.628906 L 119.007812 -69.359375 C 119.007812 -69.117188 118.765625 -68.875 118.519531 -68.628906 Z M 145.777344 -104.890625 L 146.019531 -105.136719 C 146.019531 -105.136719 146.019531 -104.890625 145.777344 -104.890625 Z M 145.777344 -104.890625 "/></g></g></g><g fill="#000000" fill-opacity="1"><g transform="translate(133.558066, 575.169128)"><g><path d="M 13.089844 -15.925781 C 17.46875 -14.882812 20.457031 -13.738281 22.050781 -12.441406 C 23.144531 -11.546875 23.691406 -10.402344 23.691406 -9.007812 C 23.691406 -7.613281 23.394531 -6.46875 22.796875 -5.675781 C 21.300781 -3.582031 18.613281 -2.539062 14.832031 -2.539062 C 9.554688 -2.539062 6.570312 -4.332031 5.921875 -7.914062 L 1.839844 -7.914062 C 3.035156 -2.191406 7.367188 0.648438 14.832031 0.648438 C 18.167969 0.648438 20.953125 -0.0507812 23.195312 -1.542969 C 25.882812 -3.285156 27.273438 -5.875 27.273438 -9.257812 C 27.273438 -12.046875 26.179688 -14.183594 23.992188 -15.679688 C 22.449219 -16.773438 19.957031 -17.769531 16.523438 -18.664062 C 13.039062 -19.5625 10.800781 -20.308594 9.753906 -20.855469 C 7.464844 -22 6.320312 -23.59375 6.371094 -25.683594 C 6.371094 -26.777344 6.570312 -27.722656 7.066406 -28.421875 C 8.363281 -30.359375 10.652344 -31.355469 13.9375 -31.355469 C 18.566406 -31.355469 21.203125 -29.863281 21.898438 -26.976562 L 25.683594 -26.976562 C 24.4375 -31.855469 20.507812 -34.34375 13.9375 -34.34375 C 10.949219 -34.34375 8.3125 -33.546875 6.121094 -31.953125 C 3.882812 -30.359375 2.738281 -28.023438 2.738281 -24.835938 C 2.738281 -20.507812 6.222656 -17.519531 13.089844 -15.925781 Z M 13.089844 -15.925781 "/></g></g></g><g fill="#000000" fill-opacity="1"><g transform="translate(201.953046, 575.169128)"><g><path d="M 23.839844 0 L 23.839844 -3.234375 L 7.21875 -3.234375 L 7.21875 -15.28125 L 23.34375 -15.28125 L 23.34375 -18.566406 L 7.21875 -18.566406 L 7.21875 -30.609375 L 23.839844 -30.609375 L 23.839844 -33.84375 L 3.734375 -33.84375 L 3.734375 0 Z M 23.839844 0 "/></g></g></g><g fill="#000000" fill-opacity="1"><g transform="translate(269.352566, 575.169128)"><g><path d="M 7.21875 -16.722656 L 7.21875 -30.511719 L 15.082031 -30.511719 C 17.121094 -30.511719 18.765625 -29.863281 20.007812 -28.570312 C 21.203125 -27.273438 21.851562 -25.683594 21.851562 -23.691406 C 21.851562 -21.699219 21.203125 -20.058594 19.910156 -18.714844 C 18.613281 -17.371094 17.023438 -16.722656 15.082031 -16.722656 Z M 25.335938 -23.640625 C 25.335938 -26.527344 24.238281 -29.015625 22.148438 -30.957031 C 20.109375 -32.851562 17.570312 -33.84375 14.582031 -33.84375 L 3.734375 -33.84375 L 3.734375 0 L 7.21875 0 L 7.21875 -13.390625 L 11.25 -13.390625 L 21.203125 0 L 25.882812 0 L 15.429688 -13.390625 C 18.066406 -13.539062 20.308594 -14.484375 22.148438 -16.226562 C 24.238281 -18.167969 25.335938 -20.65625 25.335938 -23.640625 Z M 25.335938 -23.640625 "/></g></g></g><g fill="#000000" fill-opacity="1"><g transform="translate(336.254379, 575.169128)"><g><path d="M 15.878906 2.039062 L 31.207031 -33.84375 L 27.425781 -33.84375 L 15.878906 -6.570312 L 4.28125 -33.84375 L 0.496094 -33.84375 Z M 15.878906 2.039062 "/></g></g></g><g fill="#000000" fill-opacity="1"><g transform="translate(407.785052, 575.169128)"><g><path d="M 7.21875 0 L 7.21875 -33.84375 L 3.734375 -33.84375 L 3.734375 0 Z M 7.21875 0 "/></g></g></g><g fill="#000000" fill-opacity="1"><g transform="translate(458.560509, 575.169128)"><g><path d="M 34.789062 -10.351562 L 30.957031 -10.351562 C 29.765625 -8.164062 28.121094 -6.371094 26.03125 -5.078125 C 23.941406 -3.734375 21.601562 -3.085938 19.113281 -3.085938 C 15.378906 -3.085938 12.195312 -4.429688 9.554688 -7.21875 C 6.96875 -9.855469 5.722656 -13.089844 5.722656 -16.871094 C 5.722656 -20.65625 6.96875 -23.890625 9.554688 -26.578125 C 10.75 -27.824219 12.195312 -28.816406 13.835938 -29.566406 C 15.429688 -30.3125 17.023438 -30.710938 18.613281 -30.710938 C 20.15625 -30.710938 21.5 -30.511719 22.695312 -30.164062 C 26.328125 -29.066406 29.066406 -26.878906 30.910156 -23.542969 L 34.742188 -23.542969 C 33.445312 -26.726562 31.40625 -29.316406 28.570312 -31.308594 C 25.683594 -33.296875 22.546875 -34.292969 19.113281 -34.292969 C 14.382812 -34.292969 10.402344 -32.550781 7.117188 -29.117188 C 5.574219 -27.523438 4.378906 -25.632812 3.535156 -23.542969 C 2.636719 -21.453125 2.238281 -19.210938 2.238281 -16.871094 C 2.238281 -12.09375 3.832031 -8.0625 7.117188 -4.679688 C 10.402344 -1.195312 14.382812 0.496094 19.113281 0.496094 C 22.546875 0.496094 25.683594 -0.496094 28.621094 -2.488281 C 31.457031 -4.480469 33.496094 -7.066406 34.789062 -10.351562 Z M 34.789062 -10.351562 "/></g></g></g><g fill="#000000" fill-opacity="1"><g transform="translate(534.670291, 575.169128)"><g><path d="M 23.839844 0 L 23.839844 -3.234375 L 7.21875 -3.234375 L 7.21875 -15.28125 L 23.34375 -15.28125 L 23.34375 -18.566406 L 7.21875 -18.566406 L 7.21875 -30.609375 L 23.839844 -30.609375 L 23.839844 -33.84375 L 3.734375 -33.84375 L 3.734375 0 Z M 23.839844 0 "/></g></g></g><g fill="#000000" fill-opacity="1"><g transform="translate(602.069806, 575.169128)"><g><path d="M 13.089844 -15.925781 C 17.46875 -14.882812 20.457031 -13.738281 22.050781 -12.441406 C 23.144531 -11.546875 23.691406 -10.402344 23.691406 -9.007812 C 23.691406 -7.613281 23.394531 -6.46875 22.796875 -5.675781 C 21.300781 -3.582031 18.613281 -2.539062 14.832031 -2.539062 C 9.554688 -2.539062 6.570312 -4.332031 5.921875 -7.914062 L 1.839844 -7.914062 C 3.035156 -2.191406 7.367188 0.648438 14.832031 0.648438 C 18.167969 0.648438 20.953125 -0.0507812 23.195312 -1.542969 C 25.882812 -3.285156 27.273438 -5.875 27.273438 -9.257812 C 27.273438 -12.046875 26.179688 -14.183594 23.992188 -15.679688 C 22.449219 -16.773438 19.957031 -17.769531 16.523438 -18.664062 C 13.039062 -19.5625 10.800781 -20.308594 9.753906 -20.855469 C 7.464844 -22 6.320312 -23.59375 6.371094 -25.683594 C 6.371094 -26.777344 6.570312 -27.722656 7.066406 -28.421875 C 8.363281 -30.359375 10.652344 -31.355469 13.9375 -31.355469 C 18.566406 -31.355469 21.203125 -29.863281 21.898438 -26.976562 L 25.683594 -26.976562 C 24.4375 -31.855469 20.507812 -34.34375 13.9375 -34.34375 C 10.949219 -34.34375 8.3125 -33.546875 6.121094 -31.953125 C 3.882812 -30.359375 2.738281 -28.023438 2.738281 -24.835938 C 2.738281 -20.507812 6.222656 -17.519531 13.089844 -15.925781 Z M 13.089844 -15.925781 "/></g></g></g><g fill="#57af26" fill-opacity="1"><g transform="translate(94.653537, 447.634006)"><g><path d="M 134.582031 -134.097656 C 130.203125 -140.667969 120.222656 -145.777344 114.140625 -138.234375 C 112.4375 -136.285156 112.191406 -133.121094 110.488281 -131.417969 C 109.027344 -129.714844 107.082031 -128.253906 105.867188 -125.578125 C 104.160156 -122.414062 102.703125 -119.25 100.753906 -116.332031 C 92.722656 -104.40625 84.691406 -91.992188 76.417969 -80.066406 L 64.734375 -63.519531 C 63.761719 -62.300781 54.269531 -48.429688 54.515625 -48.429688 C 55 -48.1875 55.976562 -49.402344 56.949219 -50.378906 C 52.082031 -44.535156 46.484375 -38.695312 40.886719 -32.855469 C 39.183594 -30.90625 28.71875 -18.496094 25.066406 -20.6875 C 22.632812 -22.148438 24.335938 -30.421875 24.582031 -32.613281 C 25.796875 -42.101562 27.988281 -51.59375 30.421875 -60.84375 C 35.53125 -81.042969 43.320312 -100.753906 53.054688 -119.25 C 57.679688 -128.011719 62.789062 -136.53125 68.628906 -144.5625 C 71.308594 -148.210938 73.984375 -151.863281 77.148438 -155.269531 C 79.824219 -157.945312 84.449219 -160.867188 87.125 -164.03125 C 85.179688 -162.082031 81.285156 -159.894531 79.582031 -158.191406 C 75.929688 -154.78125 72.765625 -151.132812 69.847656 -147.238281 C 64.007812 -139.449219 58.652344 -131.417969 54.027344 -122.902344 C 61.328125 -136.773438 70.089844 -150.644531 81.773438 -161.109375 C 85.910156 -165.003906 90.777344 -168.410156 96.128906 -170.359375 C 100.023438 -171.816406 102.945312 -172.304688 105.378906 -171.332031 C 106.839844 -170.359375 108.300781 -168.410156 109.273438 -165.492188 C 108.785156 -165.976562 108.054688 -166.707031 107.324219 -167.925781 C 108.054688 -166.464844 108.542969 -164.761719 109.027344 -163.300781 C 109.273438 -162.328125 111.460938 -154.539062 111.949219 -154.78125 C 112.4375 -155.027344 111.707031 -157.460938 111.707031 -157.703125 C 113.167969 -152.105469 115.113281 -149.914062 121.199219 -153.808594 C 123.875 -155.511719 128.011719 -158.917969 128.011719 -162.328125 C 128.253906 -166.464844 122.902344 -170.359375 120.222656 -172.792969 C 113.410156 -178.632812 104.160156 -184.960938 95.15625 -186.90625 C 90.289062 -187.878906 84.9375 -188.855469 80.066406 -187.152344 C 70.578125 -183.742188 63.03125 -175.710938 56.949219 -168.167969 C 49.890625 -159.40625 43.078125 -150.402344 37.480469 -140.667969 L 30.175781 -126.308594 C 28.472656 -122.902344 24.09375 -117.789062 23.851562 -113.894531 C 23.851562 -113.894531 24.824219 -115.113281 25.554688 -116.085938 C 23.605469 -112.191406 21.660156 -108.300781 20.199219 -104.40625 C 19.957031 -104.648438 21.171875 -107.8125 21.171875 -107.8125 C 19.46875 -108.054688 12.898438 -91.507812 12.167969 -90.046875 C 8.761719 -82.015625 5.839844 -73.742188 4.378906 -64.980469 C 2.675781 -56.460938 0.242188 -48.1875 0 -39.425781 C 0 -35.289062 0.242188 -30.90625 1.460938 -26.769531 C 1.703125 -25.066406 2.191406 -23.121094 3.164062 -21.417969 C 3.40625 -21.417969 5.355469 -17.277344 4.625 -19.710938 L 7.542969 -14.601562 C 7.542969 -14.601562 5.355469 -16.792969 5.109375 -17.523438 C 5.355469 -16.304688 8.273438 -13.386719 8.273438 -13.386719 C 12.167969 -7.300781 19.46875 1.21875 27.5 0.730469 C 36.261719 0.242188 44.535156 -13.140625 49.160156 -19.226562 C 63.519531 -39.425781 76.90625 -60.84375 89.804688 -81.773438 L 87.855469 -74.957031 C 87.613281 -75.199219 88.34375 -76.90625 87.855469 -76.90625 C 85.421875 -77.148438 81.042969 -56.460938 81.042969 -54.757812 C 80.554688 -50.132812 80.066406 -45.753906 79.09375 -41.128906 C 78.609375 -37.964844 77.878906 -35.046875 77.632812 -31.882812 C 77.632812 -31.636719 77.878906 -27.257812 78.363281 -27.257812 C 78.121094 -27.015625 78.363281 -26.527344 78.363281 -26.039062 C 78.363281 -26.285156 78.121094 -26.527344 78.121094 -26.769531 C 77.390625 -26.527344 77.878906 -19.226562 77.878906 -18.253906 C 77.148438 -14.117188 76.417969 -10.464844 76.417969 -6.085938 C 76.90625 3.894531 80.3125 14.84375 88.097656 21.902344 C 92.480469 25.554688 98.078125 27.742188 103.917969 27.742188 C 110.976562 27.742188 114.625 23.605469 118.519531 18.496094 C 120.953125 15.574219 131.417969 -11.195312 122.65625 -7.300781 C 120.222656 -6.328125 117.304688 -0.488281 115.601562 1.460938 C 113.167969 4.378906 108.300781 11.195312 103.917969 11.925781 C 103.1875 11.925781 102.457031 12.65625 101.726562 12.167969 C 100.269531 11.195312 98.5625 0.488281 98.320312 0.488281 C 97.835938 1.460938 97.835938 2.433594 97.835938 3.40625 C 97.105469 -3.894531 99.050781 -13.140625 100.023438 -21.171875 C 101.242188 -31.152344 102.214844 -41.371094 103.917969 -51.59375 C 105.378906 -61.570312 108.054688 -71.550781 111.460938 -81.285156 C 112.191406 -83.71875 121.199219 -107.324219 122.902344 -109.273438 C 120.953125 -108.054688 115.113281 -93.941406 112.191406 -86.152344 C 116.574219 -98.320312 121.683594 -110.003906 128.984375 -120.710938 C 128.5 -119.738281 127.769531 -118.765625 128.011719 -118.765625 C 128.984375 -118.277344 134.339844 -126.796875 133.851562 -127.039062 C 133.367188 -127.039062 133.121094 -126.796875 132.878906 -126.550781 C 134.582031 -128.742188 137.015625 -130.203125 134.582031 -134.097656 Z M 25.796875 -54.027344 C 28.230469 -71.0625 33.339844 -88.585938 40.15625 -104.40625 C 45.996094 -118.277344 53.054688 -131.175781 60.597656 -144.074219 C 64.734375 -151.375 70.578125 -160.136719 78.121094 -166.222656 C 71.550781 -160.625 66.195312 -153.078125 62.300781 -146.265625 C 54.269531 -133.121094 47.945312 -119.25 42.347656 -104.890625 C 36.503906 -89.558594 31.636719 -73.253906 27.742188 -57.433594 C 25.796875 -49.402344 24.09375 -41.371094 23.605469 -33.339844 L 23.121094 -28.960938 L 23.121094 -29.933594 C 23.605469 -37.964844 24.824219 -46.238281 25.796875 -54.027344 Z M 80.3125 -16.792969 C 80.3125 -21.902344 80.554688 -26.285156 81.773438 -31.152344 C 82.257812 -32.613281 82.746094 -34.316406 83.476562 -36.019531 C 82.988281 -32.367188 83.230469 -28.230469 82.988281 -24.335938 C 82.5 -19.710938 81.527344 -15.332031 81.042969 -10.707031 C 80.796875 -8.03125 80.554688 -5.355469 80.796875 -2.675781 C 80.3125 -7.300781 80.066406 -11.925781 80.3125 -16.792969 Z M 44.050781 -102.214844 L 43.5625 -101.484375 L 44.050781 -102.703125 Z M 82.257812 -169.382812 L 79.339844 -167.195312 C 80.3125 -167.925781 81.285156 -168.898438 82.257812 -169.382812 Z M 105.621094 -170.84375 L 106.59375 -168.898438 C 106.109375 -169.628906 105.621094 -170.359375 105.621094 -170.84375 Z M 107.324219 -168.167969 L 106.59375 -168.898438 C 106.839844 -168.410156 107.324219 -168.167969 107.324219 -168.167969 Z M 111.460938 -84.207031 L 112.191406 -86.152344 Z M 111.460938 -84.207031 "/></g></g></g><g fill="#57af26" fill-opacity="1"><g transform="translate(221.681883, 447.634006)"><g><path d="M 129.714844 -183.5 C 122.171875 -181.308594 114.625 -172.0625 109.273438 -166.707031 C 105.867188 -163.542969 102.457031 -160.136719 99.292969 -156.484375 C 97.105469 -154.050781 91.507812 -149.183594 91.019531 -145.777344 C 91.261719 -145.535156 91.261719 -145.535156 91.507812 -145.535156 L 88.097656 -141.152344 C 87.855469 -140.910156 90.046875 -144.5625 90.289062 -144.804688 C 89.074219 -144.316406 87.125 -139.9375 87.125 -139.9375 C 80.3125 -131.175781 72.765625 -123.144531 66.441406 -113.894531 C 59.382812 -103.429688 53.542969 -92.722656 47.945312 -81.527344 C 50.863281 -92.722656 55 -103.429688 59.136719 -114.140625 L 53.296875 -101.726562 L 55.730469 -107.324219 C 47.699219 -92.480469 40.886719 -76.90625 36.019531 -60.84375 C 45.753906 -93.695312 59.382812 -128.011719 80.796875 -163.300781 C 80.066406 -161.839844 79.339844 -159.894531 79.582031 -159.894531 C 80.554688 -159.648438 85.421875 -169.140625 84.691406 -169.382812 L 83.960938 -168.898438 C 85.421875 -171.574219 86.152344 -173.035156 84.691406 -176.929688 C 83.230469 -180.824219 79.582031 -187.636719 74.472656 -185.445312 C 71.308594 -184.230469 68.628906 -178.390625 67.414062 -175.957031 C 66.683594 -174.738281 66.441406 -172.792969 65.710938 -171.816406 C 64.734375 -170.359375 63.03125 -169.628906 61.570312 -167.679688 C 58.410156 -162.8125 56.21875 -156.972656 54.027344 -151.617188 C 52.8125 -148.699219 39.425781 -119.738281 39.914062 -119.492188 C 40.398438 -119.738281 40.640625 -120.222656 40.886719 -120.710938 C 40.15625 -118.519531 39.183594 -116.332031 38.207031 -114.140625 C 37.964844 -114.382812 38.9375 -116.085938 38.453125 -116.085938 C 36.261719 -116.574219 28.960938 -96.375 28.472656 -94.425781 C 27.5 -89.804688 26.285156 -85.664062 24.335938 -81.042969 C 23.121094 -78.121094 21.902344 -75.199219 20.929688 -72.28125 C 20.929688 -72.035156 19.710938 -65.953125 20.6875 -68.144531 C 20.6875 -67.414062 20.441406 -66.925781 20.199219 -66.195312 C 20.199219 -66.441406 20.199219 -66.925781 19.957031 -67.167969 C 19.46875 -66.925781 18.007812 -59.625 17.523438 -58.652344 C 15.820312 -55 13.871094 -51.351562 12.410156 -47.457031 C 8.761719 -37.234375 7.058594 -26.769531 4.625 -16.0625 C 2.921875 -8.03125 -2.433594 4.867188 1.21875 12.898438 C 4.625 20.441406 16.304688 19.957031 21.660156 14.359375 C 21.660156 14.84375 21.902344 15.089844 22.148438 15.332031 C 24.582031 -2.921875 31.636719 -21.417969 38.9375 -38.453125 C 40.398438 -35.773438 39.667969 -34.558594 40.640625 -31.394531 C 41.859375 -26.527344 45.023438 -22.390625 47.214844 -18.007812 C 48.1875 -16.0625 59.136719 5.355469 59.625 5.109375 C 59.867188 4.625 59.625 4.136719 59.625 3.894531 C 60.355469 5.597656 61.328125 7.058594 62.300781 8.761719 C 62.058594 8.761719 61.570312 7.542969 61.085938 7.789062 C 59.136719 9.246094 69.359375 23.605469 70.578125 24.582031 C 73.253906 27.742188 75.6875 30.664062 77.878906 33.828125 C 79.339844 35.773438 80.554688 37.722656 82.257812 39.183594 C 82.5 39.425781 85.421875 41.617188 84.9375 40.640625 C 85.179688 40.886719 85.664062 41.128906 85.910156 41.617188 C 85.910156 41.617188 85.664062 41.371094 85.421875 41.371094 C 85.179688 42.101562 96.859375 53.054688 97.835938 53.785156 C 102.214844 56.460938 107.082031 58.164062 112.191406 57.679688 C 126.066406 56.460938 136.773438 44.535156 144.5625 34.558594 C 146.507812 32.125 147.480469 30.175781 147.238281 27.5 C 146.75 20.929688 144.316406 24.09375 142.128906 26.527344 C 137.988281 30.90625 130.203125 35.773438 123.875 35.773438 C 121.441406 36.019531 119.007812 35.046875 116.574219 34.070312 C 115.601562 33.585938 107.082031 28.472656 107.082031 28.71875 C 107.324219 29.203125 107.570312 29.933594 108.054688 30.421875 C 103.917969 27.015625 99.539062 20.929688 95.644531 16.550781 L 78.851562 -2.675781 C 76.660156 -5.109375 61.085938 -27.257812 54.269531 -38.453125 L 62.058594 -24.582031 C 57.679688 -31.394531 53.785156 -38.453125 49.890625 -45.753906 C 62.058594 -45.023438 76.660156 -54.515625 86.640625 -60.84375 C 95.644531 -66.925781 102.457031 -76.660156 110.246094 -85.179688 C 125.820312 -101.484375 140.421875 -121.441406 144.5625 -144.316406 C 138.964844 -112.679688 119.980469 -87.855469 96.375 -67.414062 C 104.160156 -69.359375 111.949219 -78.363281 117.304688 -83.960938 C 123.386719 -89.804688 128.742188 -96.617188 133.851562 -103.429688 C 139.695312 -111.460938 144.5625 -120.222656 147.96875 -129.714844 C 149.429688 -133.367188 154.539062 -144.074219 153.566406 -148.941406 C 153.566406 -148.941406 152.835938 -147.238281 152.347656 -146.019531 C 153.078125 -150.160156 153.566406 -154.050781 153.320312 -158.433594 C 153.566406 -157.460938 154.050781 -156 153.808594 -155.757812 C 154.296875 -156 154.050781 -159.164062 154.050781 -160.378906 C 154.050781 -160.378906 153.808594 -162.082031 154.050781 -161.597656 C 153.078125 -173.277344 142.371094 -187.152344 129.714844 -183.5 Z M 129.472656 -153.808594 C 129.230469 -152.835938 129.230469 -153.078125 129.472656 -153.566406 C 128.253906 -136.773438 118.765625 -120.222656 109.273438 -106.839844 C 104.40625 -99.78125 98.808594 -93.210938 92.964844 -86.882812 C 90.289062 -84.207031 87.371094 -81.527344 84.449219 -79.09375 C 82.257812 -76.90625 77.632812 -74.472656 75.445312 -71.792969 C 77.390625 -73.742188 81.773438 -76.175781 83.71875 -77.632812 C 87.613281 -81.042969 91.507812 -84.9375 95.15625 -88.585938 C 100.996094 -94.914062 106.59375 -101.484375 111.460938 -108.542969 C 96.617188 -86.394531 76.175781 -67.167969 51.59375 -56.949219 C 53.542969 -58.164062 58.410156 -60.597656 58.410156 -60.84375 C 57.921875 -61.328125 48.1875 -56.949219 47.214844 -56.460938 C 50.378906 -62.789062 53.542969 -69.117188 56.949219 -75.445312 C 57.921875 -76.90625 65.710938 -91.75 65.710938 -91.75 C 65.222656 -91.75 64.734375 -91.507812 64.492188 -90.777344 C 75.199219 -108.054688 89.316406 -125.335938 102.457031 -141.152344 C 106.59375 -146.019531 130.6875 -177.414062 129.472656 -154.050781 Z M 72.28125 -144.074219 C 72.765625 -145.046875 74.957031 -150.644531 74.472656 -149.671875 L 68.144531 -135.800781 C 69.601562 -138.476562 71.0625 -141.152344 72.28125 -144.074219 Z M 51.351562 -44.535156 C 50.863281 -44.292969 52.324219 -41.859375 54.269531 -38.453125 C 52.566406 -41.859375 51.105469 -44.535156 51.351562 -44.535156 Z M 68.628906 -14.84375 C 68.628906 -14.84375 68.628906 -15.089844 68.875 -14.601562 L 68.875 -14.359375 Z M 68.628906 -14.84375 C 68.386719 -14.84375 68.386719 -15.089844 68.144531 -15.332031 C 68.386719 -15.089844 68.386719 -14.84375 68.628906 -14.84375 Z M 62.300781 -87.371094 C 62.300781 -87.613281 62.546875 -87.613281 62.546875 -87.855469 C 62.546875 -87.613281 62.300781 -87.371094 62.300781 -87.371094 Z M 62.300781 -87.371094 "/></g></g></g><g fill="#57af26" fill-opacity="1"><g transform="translate(352.847157, 447.634006)"><g><path d="M 134.582031 -134.097656 C 130.203125 -140.667969 120.222656 -145.777344 114.140625 -138.234375 C 112.4375 -136.285156 112.191406 -133.121094 110.488281 -131.417969 C 109.027344 -129.714844 107.082031 -128.253906 105.867188 -125.578125 C 104.160156 -122.414062 102.703125 -119.25 100.753906 -116.332031 C 92.722656 -104.40625 84.691406 -91.992188 76.417969 -80.066406 L 64.734375 -63.519531 C 63.761719 -62.300781 54.269531 -48.429688 54.515625 -48.429688 C 55 -48.1875 55.976562 -49.402344 56.949219 -50.378906 C 52.082031 -44.535156 46.484375 -38.695312 40.886719 -32.855469 C 39.183594 -30.90625 28.71875 -18.496094 25.066406 -20.6875 C 22.632812 -22.148438 24.335938 -30.421875 24.582031 -32.613281 C 25.796875 -42.101562 27.988281 -51.59375 30.421875 -60.84375 C 35.53125 -81.042969 43.320312 -100.753906 53.054688 -119.25 C 57.679688 -128.011719 62.789062 -136.53125 68.628906 -144.5625 C 71.308594 -148.210938 73.984375 -151.863281 77.148438 -155.269531 C 79.824219 -157.945312 84.449219 -160.867188 87.125 -164.03125 C 85.179688 -162.082031 81.285156 -159.894531 79.582031 -158.191406 C 75.929688 -154.78125 72.765625 -151.132812 69.847656 -147.238281 C 64.007812 -139.449219 58.652344 -131.417969 54.027344 -122.902344 C 61.328125 -136.773438 70.089844 -150.644531 81.773438 -161.109375 C 85.910156 -165.003906 90.777344 -168.410156 96.128906 -170.359375 C 100.023438 -171.816406 102.945312 -172.304688 105.378906 -171.332031 C 106.839844 -170.359375 108.300781 -168.410156 109.273438 -165.492188 C 108.785156 -165.976562 108.054688 -166.707031 107.324219 -167.925781 C 108.054688 -166.464844 108.542969 -164.761719 109.027344 -163.300781 C 109.273438 -162.328125 111.460938 -154.539062 111.949219 -154.78125 C 112.4375 -155.027344 111.707031 -157.460938 111.707031 -157.703125 C 113.167969 -152.105469 115.113281 -149.914062 121.199219 -153.808594 C 123.875 -155.511719 128.011719 -158.917969 128.011719 -162.328125 C 128.253906 -166.464844 122.902344 -170.359375 120.222656 -172.792969 C 113.410156 -178.632812 104.160156 -184.960938 95.15625 -186.90625 C 90.289062 -187.878906 84.9375 -188.855469 80.066406 -187.152344 C 70.578125 -183.742188 63.03125 -175.710938 56.949219 -168.167969 C 49.890625 -159.40625 43.078125 -150.402344 37.480469 -140.667969 L 30.175781 -126.308594 C 28.472656 -122.902344 24.09375 -117.789062 23.851562 -113.894531 C 23.851562 -113.894531 24.824219 -115.113281 25.554688 -116.085938 C 23.605469 -112.191406 21.660156 -108.300781 20.199219 -104.40625 C 19.957031 -104.648438 21.171875 -107.8125 21.171875 -107.8125 C 19.46875 -108.054688 12.898438 -91.507812 12.167969 -90.046875 C 8.761719 -82.015625 5.839844 -73.742188 4.378906 -64.980469 C 2.675781 -56.460938 0.242188 -48.1875 0 -39.425781 C 0 -35.289062 0.242188 -30.90625 1.460938 -26.769531 C 1.703125 -25.066406 2.191406 -23.121094 3.164062 -21.417969 C 3.40625 -21.417969 5.355469 -17.277344 4.625 -19.710938 L 7.542969 -14.601562 C 7.542969 -14.601562 5.355469 -16.792969 5.109375 -17.523438 C 5.355469 -16.304688 8.273438 -13.386719 8.273438 -13.386719 C 12.167969 -7.300781 19.46875 1.21875 27.5 0.730469 C 36.261719 0.242188 44.535156 -13.140625 49.160156 -19.226562 C 63.519531 -39.425781 76.90625 -60.84375 89.804688 -81.773438 L 87.855469 -74.957031 C 87.613281 -75.199219 88.34375 -76.90625 87.855469 -76.90625 C 85.421875 -77.148438 81.042969 -56.460938 81.042969 -54.757812 C 80.554688 -50.132812 80.066406 -45.753906 79.09375 -41.128906 C 78.609375 -37.964844 77.878906 -35.046875 77.632812 -31.882812 C 77.632812 -31.636719 77.878906 -27.257812 78.363281 -27.257812 C 78.121094 -27.015625 78.363281 -26.527344 78.363281 -26.039062 C 78.363281 -26.285156 78.121094 -26.527344 78.121094 -26.769531 C 77.390625 -26.527344 77.878906 -19.226562 77.878906 -18.253906 C 77.148438 -14.117188 76.417969 -10.464844 76.417969 -6.085938 C 76.90625 3.894531 80.3125 14.84375 88.097656 21.902344 C 92.480469 25.554688 98.078125 27.742188 103.917969 27.742188 C 110.976562 27.742188 114.625 23.605469 118.519531 18.496094 C 120.953125 15.574219 131.417969 -11.195312 122.65625 -7.300781 C 120.222656 -6.328125 117.304688 -0.488281 115.601562 1.460938 C 113.167969 4.378906 108.300781 11.195312 103.917969 11.925781 C 103.1875 11.925781 102.457031 12.65625 101.726562 12.167969 C 100.269531 11.195312 98.5625 0.488281 98.320312 0.488281 C 97.835938 1.460938 97.835938 2.433594 97.835938 3.40625 C 97.105469 -3.894531 99.050781 -13.140625 100.023438 -21.171875 C 101.242188 -31.152344 102.214844 -41.371094 103.917969 -51.59375 C 105.378906 -61.570312 108.054688 -71.550781 111.460938 -81.285156 C 112.191406 -83.71875 121.199219 -107.324219 122.902344 -109.273438 C 120.953125 -108.054688 115.113281 -93.941406 112.191406 -86.152344 C 116.574219 -98.320312 121.683594 -110.003906 128.984375 -120.710938 C 128.5 -119.738281 127.769531 -118.765625 128.011719 -118.765625 C 128.984375 -118.277344 134.339844 -126.796875 133.851562 -127.039062 C 133.367188 -127.039062 133.121094 -126.796875 132.878906 -126.550781 C 134.582031 -128.742188 137.015625 -130.203125 134.582031 -134.097656 Z M 25.796875 -54.027344 C 28.230469 -71.0625 33.339844 -88.585938 40.15625 -104.40625 C 45.996094 -118.277344 53.054688 -131.175781 60.597656 -144.074219 C 64.734375 -151.375 70.578125 -160.136719 78.121094 -166.222656 C 71.550781 -160.625 66.195312 -153.078125 62.300781 -146.265625 C 54.269531 -133.121094 47.945312 -119.25 42.347656 -104.890625 C 36.503906 -89.558594 31.636719 -73.253906 27.742188 -57.433594 C 25.796875 -49.402344 24.09375 -41.371094 23.605469 -33.339844 L 23.121094 -28.960938 L 23.121094 -29.933594 C 23.605469 -37.964844 24.824219 -46.238281 25.796875 -54.027344 Z M 80.3125 -16.792969 C 80.3125 -21.902344 80.554688 -26.285156 81.773438 -31.152344 C 82.257812 -32.613281 82.746094 -34.316406 83.476562 -36.019531 C 82.988281 -32.367188 83.230469 -28.230469 82.988281 -24.335938 C 82.5 -19.710938 81.527344 -15.332031 81.042969 -10.707031 C 80.796875 -8.03125 80.554688 -5.355469 80.796875 -2.675781 C 80.3125 -7.300781 80.066406 -11.925781 80.3125 -16.792969 Z M 44.050781 -102.214844 L 43.5625 -101.484375 L 44.050781 -102.703125 Z M 82.257812 -169.382812 L 79.339844 -167.195312 C 80.3125 -167.925781 81.285156 -168.898438 82.257812 -169.382812 Z M 105.621094 -170.84375 L 106.59375 -168.898438 C 106.109375 -169.628906 105.621094 -170.359375 105.621094 -170.84375 Z M 107.324219 -168.167969 L 106.59375 -168.898438 C 106.839844 -168.410156 107.324219 -168.167969 107.324219 -168.167969 Z M 111.460938 -84.207031 L 112.191406 -86.152344 Z M 111.460938 -84.207031 "/></g></g></g><g fill="#57af26" fill-opacity="1"><g transform="translate(479.875504, 447.634006)"><g><path d="M 180.824219 41.128906 C 174.007812 43.5625 162.8125 44.78125 156 41.128906 C 148.941406 37.234375 151.617188 26.527344 153.078125 20.199219 C 156 7.058594 161.109375 -5.839844 166.222656 -18.496094 C 169.140625 -25.066406 171.816406 -31.882812 174.738281 -38.695312 C 175.46875 -40.15625 181.796875 -55.976562 181.554688 -55.976562 C 181.066406 -55.976562 180.335938 -55.246094 179.847656 -54.269531 C 188.367188 -72.035156 202.726562 -91.75 198.832031 -112.921875 C 197.128906 -121.925781 190.800781 -130.933594 180.824219 -130.6875 C 172.304688 -130.6875 164.515625 -124.359375 158.675781 -119.007812 C 147.726562 -109.273438 138.71875 -97.835938 130.203125 -86.152344 C 129.230469 -84.9375 125.335938 -79.09375 120.953125 -72.28125 C 123.144531 -75.929688 126.066406 -79.339844 128.5 -82.746094 C 118.277344 -68.386719 109.273438 -53.296875 100.511719 -38.207031 C 107.324219 -61.085938 118.519531 -82.257812 128.011719 -103.917969 C 131.664062 -111.949219 137.746094 -119.25 141.152344 -127.523438 C 144.804688 -136.53125 142.613281 -147.96875 136.53125 -155.511719 C 123.144531 -171.816406 103.917969 -143.585938 95.886719 -135.070312 C 79.582031 -117.789062 65.953125 -97.347656 53.296875 -77.632812 C 55 -82.988281 55.976562 -88.097656 57.921875 -93.453125 C 60.355469 -100.269531 63.03125 -106.839844 65.222656 -113.652344 C 67.65625 -120.710938 69.847656 -128.011719 72.035156 -135.070312 C 74.226562 -142.128906 76.660156 -151.617188 74.957031 -159.164062 C 73.742188 -164.515625 71.550781 -172.0625 67.65625 -176.199219 C 61.570312 -182.769531 53.054688 -182.28125 45.265625 -179.847656 C 38.207031 -177.660156 32.125 -174.25 26.527344 -169.628906 C 23.605469 -166.949219 20.929688 -164.273438 18.253906 -161.351562 L 15.820312 -157.945312 C 14.359375 -156 14.601562 -154.050781 13.871094 -152.347656 C 11.4375 -146.996094 7.300781 -142.855469 5.597656 -137.015625 C 3.894531 -130.445312 3.40625 -121.199219 7.300781 -115.355469 C 9.246094 -112.679688 12.410156 -110.734375 15.332031 -113.167969 C 17.035156 -114.871094 16.304688 -116.574219 16.550781 -118.519531 C 16.792969 -119.980469 17.523438 -123.875 18.496094 -126.308594 C 22.875 -138.234375 29.449219 -150.160156 38.207031 -159.40625 C 41.859375 -163.542969 46.238281 -167.4375 51.59375 -168.898438 C 58.894531 -170.601562 59.136719 -164.761719 58.164062 -158.917969 L 56.703125 -149.914062 L 56.703125 -152.347656 C 49.648438 -126.066406 36.019531 -101.726562 26.769531 -76.417969 C 22.148438 -64.007812 16.792969 -52.324219 11.683594 -40.15625 C 6.570312 -27.988281 0.730469 -13.628906 0 -0.242188 C -0.242188 4.378906 0.730469 9.003906 4.378906 11.925781 C 8.519531 15.332031 14.84375 15.574219 18.007812 11.195312 C 20.441406 7.789062 21.660156 1.703125 23.121094 -2.191406 C 25.554688 -8.519531 27.742188 -14.84375 30.421875 -20.929688 C 32.855469 -27.5 36.992188 -33.339844 40.640625 -39.425781 C 48.429688 -52.082031 56.21875 -64.734375 64.492188 -77.148438 C 72.28125 -89.074219 80.066406 -100.753906 88.585938 -111.949219 C 97.105469 -122.902344 105.621094 -134.097656 116.816406 -142.371094 C 118.519531 -143.585938 124.359375 -148.210938 126.796875 -147.238281 C 128.742188 -146.507812 126.796875 -142.855469 126.066406 -140.910156 C 121.925781 -129.714844 116.574219 -118.277344 110.488281 -108.054688 C 96.375 -84.207031 81.773438 -57.433594 76.417969 -29.933594 C 74.472656 -20.6875 74.472656 -11.4375 81.773438 -4.378906 C 89.316406 2.675781 91.992188 -3.40625 94.425781 -10.222656 C 96.375 -15.820312 100.511719 -20.6875 103.429688 -25.796875 C 107.570312 -32.613281 111.460938 -39.667969 115.84375 -46.726562 C 118.519531 -50.621094 120.46875 -55.976562 123.632812 -58.894531 C 128.742188 -64.007812 132.390625 -69.847656 136.53125 -75.6875 C 145.046875 -87.855469 153.566406 -99.539062 164.515625 -109.515625 C 167.195312 -111.949219 173.277344 -118.277344 177.414062 -117.304688 C 182.527344 -116.085938 176.929688 -108.054688 177.171875 -104.890625 L 178.875 -108.300781 C 177.414062 -103.917969 175.957031 -99.78125 174.25 -95.644531 C 174.007812 -95.886719 174.980469 -98.808594 174.980469 -98.808594 C 174.007812 -99.050781 168.898438 -87.371094 168.167969 -86.152344 C 164.515625 -78.609375 160.136719 -71.0625 157.460938 -63.03125 C 154.78125 -55.730469 152.105469 -48.917969 148.941406 -41.859375 L 143.585938 -29.691406 C 142.613281 -27.015625 139.695312 -21.171875 140.421875 -18.253906 C 140.667969 -18.253906 140.910156 -18.253906 140.910156 -18.496094 L 139.695312 -14.117188 C 139.9375 -15.089844 140.179688 -17.277344 140.179688 -17.523438 C 139.207031 -16.792969 138.964844 -11.925781 138.964844 -11.925781 C 133.121094 8.519531 130.6875 30.175781 144.804688 48.429688 C 151.617188 57.191406 159.648438 61.085938 170.359375 58.164062 C 175.46875 56.949219 180.335938 54.515625 184.472656 51.105469 C 186.90625 48.917969 194.453125 42.347656 193.476562 38.453125 C 192.746094 34.558594 183.257812 40.398438 180.824219 41.128906 Z M 148.453125 -31.882812 C 150.644531 -36.261719 152.59375 -40.886719 154.539062 -45.511719 C 156 -49.160156 156.972656 -55.730469 159.40625 -58.652344 C 160.136719 -58.410156 160.136719 -57.679688 159.40625 -56.21875 C 157.703125 -47.457031 152.835938 -37.722656 148.941406 -29.449219 C 145.777344 -22.390625 142.613281 -15.089844 140.179688 -7.789062 C 142.613281 -15.820312 144.5625 -23.851562 148.453125 -31.882812 Z M 40.640625 -104.648438 C 44.050781 -112.679688 46.726562 -121.199219 50.132812 -129.230469 C 51.59375 -132.636719 53.296875 -136.53125 54.515625 -140.421875 C 51.59375 -128.984375 47.945312 -117.546875 42.589844 -106.59375 C 37.480469 -96.128906 32.855469 -85.421875 28.472656 -74.472656 C 32.367188 -84.691406 36.261719 -94.671875 40.640625 -104.648438 Z M 118.519531 -68.628906 C 112.191406 -58.410156 105.378906 -47.945312 105.378906 -47.945312 C 106.109375 -47.699219 115.113281 -62.789062 118.519531 -68.628906 Z M 155.511719 -115.113281 L 146.507812 -105.621094 C 149.429688 -109.027344 152.347656 -112.191406 155.511719 -115.113281 Z M 138.234375 0 C 137.503906 -0.242188 137.503906 -0.730469 138.234375 -1.703125 C 138.71875 -1.460938 138.71875 -0.972656 138.234375 0 Z M 144.074219 -102.703125 L 144.5625 -103.429688 L 144.5625 -103.1875 C 145.046875 -104.160156 145.777344 -104.890625 146.019531 -105.136719 L 146.507812 -105.621094 L 146.019531 -104.890625 L 145.046875 -103.917969 C 145.046875 -103.917969 145.289062 -103.917969 145.289062 -104.160156 L 145.046875 -103.917969 L 144.804688 -103.429688 Z M 119.007812 -69.359375 L 119.980469 -70.820312 L 119.980469 -70.578125 Z M 118.519531 -68.628906 L 119.007812 -69.359375 C 119.007812 -69.117188 118.765625 -68.875 118.519531 -68.628906 Z M 145.777344 -104.890625 L 146.019531 -105.136719 C 146.019531 -105.136719 146.019531 -104.890625 145.777344 -104.890625 Z M 145.777344 -104.890625 "/></g></g></g><g mask="url(#905fdd656c)"><g transform="matrix(1, 0, 0, 1, 26, 153)"><g clip-path="url(#19826acef2)"><g clip-path="url(#895254a3d5)"><path fill="#0f6b6b" d="M 0.410156 164.210938 C 3.542969 147.070312 10.03125 131.003906 19.433594 116.554688 C 19.324219 113.644531 19.757812 110.625 20.730469 107.714844 C 25.269531 70.195312 56.832031 43.671875 87.316406 25.125 C 104.394531 14.773438 122.121094 6.363281 142.007812 2.808594 C 161.035156 -0.535156 180.921875 0.21875 199.40625 6.148438 C 222.753906 13.804688 239.507812 29.976562 255.722656 47.660156 C 257.773438 49.921875 255.179688 53.375 252.476562 51.863281 C 213.023438 30.191406 175.625 68.253906 149.898438 93.589844 C 136.171875 107.175781 121.6875 120.007812 104.070312 128.09375 C 87.964844 135.53125 69.265625 140.167969 51.429688 138.335938 C 42.457031 137.367188 33.59375 134.667969 26.351562 129.171875 C 26.242188 129.0625 26.136719 128.957031 26.027344 128.847656 C 18.785156 140.382812 13.597656 153 10.894531 166.367188 C 10.570312 167.878906 8.949219 168.523438 7.542969 168.203125 C 5.816406 167.878906 4.191406 167.554688 2.464844 167.339844 C 0.84375 167.230469 0.195312 165.507812 0.410156 164.210938 Z M 0.410156 164.210938 " fill-opacity="1" fill-rule="nonzero"/></g><path fill="#11b7b7" d="M 27.214844 118.496094 C 27.214844 118.496094 27.757812 117.851562 28.730469 116.664062 C 29.703125 115.476562 31.214844 113.753906 33.160156 111.488281 C 36.945312 107.066406 42.671875 101.03125 49.589844 93.914062 C 56.617188 86.796875 65.046875 78.820312 74.5625 70.839844 C 79.316406 66.851562 84.289062 62.863281 89.585938 58.980469 C 94.773438 55.097656 100.285156 51.433594 105.800781 47.875 C 111.3125 44.316406 116.824219 40.757812 122.554688 37.632812 C 128.28125 34.503906 134.011719 31.808594 139.738281 29.652344 C 145.46875 27.390625 151.195312 25.664062 156.710938 24.371094 C 162.222656 23.078125 167.519531 22.320312 172.492188 22.105469 C 177.464844 21.78125 182.003906 22 186.003906 22.320312 C 186.976562 22.429688 187.949219 22.539062 188.921875 22.644531 C 189.894531 22.753906 190.757812 22.96875 191.625 23.078125 C 193.351562 23.292969 194.867188 23.722656 196.378906 23.9375 C 199.191406 24.585938 201.351562 25.234375 202.863281 25.664062 C 204.378906 26.09375 205.132812 26.417969 205.132812 26.417969 C 205.566406 26.527344 206 26.3125 206.109375 25.878906 C 206.214844 25.449219 206 25.015625 205.675781 24.910156 C 205.675781 24.910156 204.917969 24.585938 203.40625 24.046875 C 201.890625 23.507812 199.730469 22.753906 196.917969 21.890625 C 195.515625 21.566406 193.894531 21.027344 192.164062 20.703125 C 191.300781 20.488281 190.324219 20.273438 189.460938 20.164062 C 188.488281 20.058594 187.515625 19.84375 186.542969 19.625 C 182.433594 18.980469 177.789062 18.546875 172.597656 18.65625 C 167.519531 18.65625 161.898438 19.085938 156.167969 20.164062 C 150.332031 21.136719 144.386719 22.644531 138.226562 24.585938 C 132.171875 26.527344 126.011719 29.007812 119.851562 31.917969 C 113.796875 34.828125 107.746094 37.957031 101.90625 41.621094 C 96.179688 45.289062 90.667969 49.382812 85.371094 53.375 C 80.074219 57.472656 75.101562 61.675781 70.34375 65.882812 C 65.589844 70.085938 61.15625 74.289062 57.050781 78.386719 C 52.941406 82.484375 49.160156 86.472656 45.699219 90.140625 C 38.890625 97.578125 33.484375 104.15625 29.8125 108.683594 C 27.972656 110.949219 26.566406 112.78125 25.59375 114.078125 C 24.621094 115.371094 24.191406 116.015625 24.191406 116.015625 C 23.542969 116.878906 23.757812 118.066406 24.621094 118.710938 C 25.269531 119.46875 26.460938 119.359375 27.214844 118.496094 Z M 27.214844 118.496094 " fill-opacity="1" fill-rule="nonzero"/></g></g></g><g mask="url(#f7a517e589)"><g transform="matrix(1, 0, 0, 1, 550, 383)"><g clip-path="url(#391483c594)"><path fill="#231f1f" d="M 231.871094 145.21875 C 231.484375 145.644531 230.917969 145.851562 230.355469 145.765625 C 229.421875 145.636719 228.761719 144.769531 228.894531 143.832031 C 231.113281 128.082031 225.40625 112.3125 213.640625 101.640625 C 201.878906 90.972656 185.625 86.835938 170.167969 90.574219 C 169.246094 90.796875 168.320312 90.226562 168.09375 89.308594 C 167.960938 88.753906 168.113281 88.171875 168.492188 87.746094 C 168.722656 87.496094 169.027344 87.316406 169.359375 87.238281 C 185.925781 83.230469 203.34375 87.664062 215.953125 99.097656 C 228.554688 110.53125 234.664062 127.433594 232.292969 144.308594 C 232.25 144.648438 232.101562 144.964844 231.871094 145.21875 Z M 206.097656 159.128906 C 193.867188 172.617188 172.9375 173.640625 159.441406 161.410156 C 145.953125 149.171875 144.929688 128.242188 157.167969 114.753906 C 169.398438 101.261719 190.328125 100.242188 203.824219 112.472656 C 217.3125 124.710938 218.335938 145.636719 206.097656 159.128906 Z M 194.773438 186.132812 C 194.542969 186.382812 194.238281 186.5625 193.898438 186.648438 C 177.339844 190.648438 159.921875 186.210938 147.3125 174.78125 C 134.710938 163.347656 128.59375 146.449219 130.964844 129.570312 C 131.015625 129.230469 131.164062 128.917969 131.394531 128.660156 C 131.78125 128.234375 132.347656 128.03125 132.90625 128.113281 C 133.363281 128.171875 133.765625 128.410156 134.042969 128.777344 C 134.320312 129.140625 134.433594 129.589844 134.371094 130.054688 C 132.152344 145.796875 137.859375 161.570312 149.621094 172.238281 C 161.386719 182.910156 177.632812 187.046875 193.097656 183.308594 C 193.546875 183.199219 194 183.273438 194.394531 183.511719 C 194.785156 183.75 195.0625 184.128906 195.171875 184.574219 C 195.300781 185.125 195.160156 185.710938 194.773438 186.132812 Z M 222.714844 91.632812 C 197.734375 68.984375 158.980469 70.871094 136.328125 95.855469 C 113.671875 120.835938 115.566406 159.589844 140.550781 182.246094 C 147.238281 188.3125 154.914062 192.613281 163.007812 195.191406 L 118.714844 195.191406 C 117.917969 195.191406 117.277344 195.832031 117.277344 196.628906 C 117.277344 197.425781 117.917969 198.074219 118.714844 198.074219 L 177.710938 198.074219 C 177.898438 198.074219 178.066406 198.035156 178.226562 197.972656 C 196.007812 198.957031 214.070312 192.21875 226.9375 178.027344 C 249.59375 153.042969 247.699219 114.289062 222.714844 91.632812 " fill-opacity="1" fill-rule="nonzero"/><path fill="#231f1f" d="M 172.148438 130.960938 L 163.476562 123.097656 C 163.398438 123.191406 163.316406 123.296875 163.238281 123.390625 L 171.949219 131.292969 C 172.011719 131.179688 172.085938 131.070312 172.148438 130.960938 " fill-opacity="1" fill-rule="nonzero"/><path fill="#231f1f" d="M 175.066406 127.851562 L 166.359375 119.957031 C 166.265625 120.039062 166.175781 120.128906 166.085938 120.21875 L 174.757812 128.089844 C 174.859375 128.011719 174.960938 127.925781 175.066406 127.851562 " fill-opacity="1" fill-rule="nonzero"/><path fill="#231f1f" d="M 188.195312 146.03125 L 196.90625 153.925781 C 197 153.839844 197.085938 153.75 197.183594 153.660156 L 188.507812 145.792969 C 188.40625 145.875 188.304688 145.953125 188.195312 146.03125 " fill-opacity="1" fill-rule="nonzero"/><path fill="#231f1f" d="M 191.109375 142.921875 L 199.789062 150.789062 C 199.867188 150.6875 199.949219 150.589844 200.019531 150.488281 L 191.316406 142.585938 C 191.253906 142.703125 191.183594 142.804688 191.109375 142.921875 " fill-opacity="1" fill-rule="nonzero"/><path fill="#231f1f" d="M 179.15625 126.011719 L 178.585938 114.320312 C 178.457031 114.335938 178.335938 114.355469 178.207031 114.367188 L 178.777344 126.101562 C 178.90625 126.070312 179.027344 126.039062 179.15625 126.011719 " fill-opacity="1" fill-rule="nonzero"/><path fill="#231f1f" d="M 183.414062 125.878906 L 182.84375 114.140625 C 182.714844 114.136719 182.585938 114.136719 182.457031 114.128906 L 183.035156 125.828125 C 183.160156 125.839844 183.285156 125.859375 183.414062 125.878906 " fill-opacity="1" fill-rule="nonzero"/><path fill="#231f1f" d="M 179.851562 148.003906 L 180.421875 159.738281 C 180.550781 159.746094 180.679688 159.75 180.800781 159.75 L 180.230469 148.058594 C 180.101562 148.039062 179.980469 148.019531 179.851562 148.003906 " fill-opacity="1" fill-rule="nonzero"/><path fill="#231f1f" d="M 184.109375 147.867188 L 184.679688 159.566406 C 184.804688 159.546875 184.929688 159.53125 185.058594 159.507812 L 184.480469 147.777344 C 184.359375 147.808594 184.238281 147.839844 184.109375 147.867188 " fill-opacity="1" fill-rule="nonzero"/><path fill="#231f1f" d="M 192.554688 134.460938 L 204.253906 133.894531 C 204.234375 133.765625 204.222656 133.636719 204.203125 133.515625 L 192.464844 134.089844 C 192.5 134.214844 192.53125 134.339844 192.554688 134.460938 " fill-opacity="1" fill-rule="nonzero"/><path fill="#231f1f" d="M 192.691406 138.726562 L 204.425781 138.148438 C 204.433594 138.027344 204.441406 137.898438 204.445312 137.769531 L 192.75 138.339844 C 192.730469 138.46875 192.71875 138.597656 192.691406 138.726562 " fill-opacity="1" fill-rule="nonzero"/><path fill="#231f1f" d="M 170.566406 135.15625 L 158.839844 135.734375 C 158.832031 135.855469 158.824219 135.984375 158.820312 136.113281 L 170.515625 135.539062 C 170.53125 135.410156 170.546875 135.28125 170.566406 135.15625 " fill-opacity="1" fill-rule="nonzero"/><path fill="#231f1f" d="M 170.703125 139.417969 L 159.011719 139.992188 C 159.023438 140.113281 159.042969 140.242188 159.0625 140.363281 L 170.800781 139.792969 C 170.761719 139.671875 170.734375 139.542969 170.703125 139.417969 " fill-opacity="1" fill-rule="nonzero"/><path fill="#231f1f" d="M 195.480469 118.78125 C 195.375 118.703125 195.28125 118.625 195.175781 118.550781 L 187.28125 127.253906 C 187.390625 127.316406 187.5 127.386719 187.609375 127.457031 L 195.480469 118.78125 " fill-opacity="1" fill-rule="nonzero"/><path fill="#231f1f" d="M 190.71875 130.375 L 198.613281 121.664062 C 198.53125 121.574219 198.441406 121.484375 198.355469 121.386719 L 190.488281 130.066406 C 190.566406 130.167969 190.640625 130.273438 190.71875 130.375 " fill-opacity="1" fill-rule="nonzero"/><path fill="#231f1f" d="M 172.546875 143.503906 L 164.644531 152.214844 C 164.734375 152.304688 164.824219 152.394531 164.910156 152.492188 L 172.777344 143.8125 C 172.699219 143.710938 172.617188 143.609375 172.546875 143.503906 " fill-opacity="1" fill-rule="nonzero"/><path fill="#231f1f" d="M 167.785156 155.101562 C 167.890625 155.175781 167.984375 155.253906 168.089844 155.332031 L 175.984375 146.628906 C 175.875 146.554688 175.765625 146.492188 175.65625 146.421875 L 167.785156 155.101562 " fill-opacity="1" fill-rule="nonzero"/><path fill="#231f1f" d="M 199.4375 153.082031 C 190.53125 162.898438 175.300781 163.644531 165.488281 154.742188 C 155.671875 145.835938 154.933594 130.613281 163.828125 120.796875 C 172.734375 110.980469 187.957031 110.238281 197.773438 119.140625 C 207.59375 128.042969 208.332031 143.269531 199.4375 153.082031 Z M 199.109375 117.664062 C 188.484375 108.027344 171.992188 108.828125 162.359375 119.460938 C 152.714844 130.085938 153.527344 146.574219 164.152344 156.21875 C 174.78125 165.855469 191.273438 165.050781 200.90625 154.417969 C 210.542969 143.792969 209.738281 127.304688 199.109375 117.664062 " fill-opacity="1" fill-rule="nonzero"/><path fill="#231f1f" d="M 201.789062 155.222656 C 191.707031 166.335938 174.46875 167.175781 163.355469 157.097656 C 152.242188 147.019531 151.398438 129.777344 161.476562 118.65625 C 171.550781 107.546875 188.796875 106.703125 199.910156 116.78125 C 211.023438 126.863281 211.867188 144.101562 201.789062 155.222656 Z M 203.019531 113.359375 C 190.019531 101.566406 169.84375 102.546875 158.046875 115.550781 C 146.253906 128.558594 147.242188 148.734375 160.246094 160.527344 C 173.246094 172.324219 193.421875 171.332031 205.21875 158.324219 C 217.011719 145.324219 216.027344 125.144531 203.019531 113.359375 " fill-opacity="1" fill-rule="nonzero"/><path fill="#231f1f" d="M 185.726562 140.652344 C 183.679688 142.914062 180.179688 143.082031 177.917969 141.039062 C 175.660156 138.988281 175.488281 135.488281 177.539062 133.226562 C 179.582031 130.964844 183.089844 130.800781 185.34375 132.847656 C 187.605469 134.890625 187.777344 138.398438 185.726562 140.652344 Z M 188.363281 129.515625 C 184.269531 125.808594 177.921875 126.117188 174.210938 130.207031 C 170.496094 134.300781 170.804688 140.652344 174.902344 144.367188 C 178.996094 148.074219 185.34375 147.765625 189.054688 143.671875 C 192.769531 139.582031 192.453125 133.226562 188.363281 129.515625 " fill-opacity="1" fill-rule="nonzero"/><path fill="#231f1f" d="M 71.800781 79.722656 L 151.957031 79.722656 C 153.039062 79.722656 153.917969 78.851562 153.917969 77.765625 C 153.917969 76.683594 153.039062 75.804688 151.957031 75.804688 L 71.800781 75.804688 C 70.71875 75.804688 69.835938 76.683594 69.835938 77.765625 C 69.835938 78.851562 70.71875 79.722656 71.800781 79.722656 " fill-opacity="1" fill-rule="nonzero"/><path fill="#231f1f" d="M 116.273438 96.566406 C 116.273438 95.488281 115.394531 94.613281 114.316406 94.613281 L 34.152344 94.613281 C 33.070312 94.613281 32.195312 95.488281 32.195312 96.566406 C 32.195312 97.652344 33.070312 98.527344 34.152344 98.527344 L 114.316406 98.527344 C 115.394531 98.527344 116.273438 97.652344 116.273438 96.566406 " fill-opacity="1" fill-rule="nonzero"/><path fill="#231f1f" d="M 119.332031 114.128906 C 119.332031 113.332031 118.683594 112.691406 117.886719 112.691406 L 58.890625 112.691406 C 58.09375 112.691406 57.449219 113.332031 57.449219 114.128906 C 57.449219 114.925781 58.09375 115.566406 58.890625 115.566406 L 117.886719 115.566406 C 118.683594 115.566406 119.332031 114.925781 119.332031 114.128906 " fill-opacity="1" fill-rule="nonzero"/></g></g></g><g fill="#57af26" fill-opacity="1"><g transform="translate(130.14383, 575.169128)"><g><path d="M 13.089844 -15.925781 C 17.46875 -14.882812 20.457031 -13.738281 22.050781 -12.441406 C 23.144531 -11.546875 23.691406 -10.402344 23.691406 -9.007812 C 23.691406 -7.613281 23.394531 -6.46875 22.796875 -5.675781 C 21.300781 -3.582031 18.613281 -2.539062 14.832031 -2.539062 C 9.554688 -2.539062 6.570312 -4.332031 5.921875 -7.914062 L 1.839844 -7.914062 C 3.035156 -2.191406 7.367188 0.648438 14.832031 0.648438 C 18.167969 0.648438 20.953125 -0.0507812 23.195312 -1.542969 C 25.882812 -3.285156 27.273438 -5.875 27.273438 -9.257812 C 27.273438 -12.046875 26.179688 -14.183594 23.992188 -15.679688 C 22.449219 -16.773438 19.957031 -17.769531 16.523438 -18.664062 C 13.039062 -19.5625 10.800781 -20.308594 9.753906 -20.855469 C 7.464844 -22 6.320312 -23.59375 6.371094 -25.683594 C 6.371094 -26.777344 6.570312 -27.722656 7.066406 -28.421875 C 8.363281 -30.359375 10.652344 -31.355469 13.9375 -31.355469 C 18.566406 -31.355469 21.203125 -29.863281 21.898438 -26.976562 L 25.683594 -26.976562 C 24.4375 -31.855469 20.507812 -34.34375 13.9375 -34.34375 C 10.949219 -34.34375 8.3125 -33.546875 6.121094 -31.953125 C 3.882812 -30.359375 2.738281 -28.023438 2.738281 -24.835938 C 2.738281 -20.507812 6.222656 -17.519531 13.089844 -15.925781 Z M 13.089844 -15.925781 "/></g></g></g><g fill="#57af26" fill-opacity="1"><g transform="translate(198.538809, 575.169128)"><g><path d="M 23.839844 0 L 23.839844 -3.234375 L 7.21875 -3.234375 L 7.21875 -15.28125 L 23.34375 -15.28125 L 23.34375 -18.566406 L 7.21875 -18.566406 L 7.21875 -30.609375 L 23.839844 -30.609375 L 23.839844 -33.84375 L 3.734375 -33.84375 L 3.734375 0 Z M 23.839844 0 "/></g></g></g><g fill="#57af26" fill-opacity="1"><g transform="translate(265.93833, 575.169128)"><g><path d="M 7.21875 -16.722656 L 7.21875 -30.511719 L 15.082031 -30.511719 C 17.121094 -30.511719 18.765625 -29.863281 20.007812 -28.570312 C 21.203125 -27.273438 21.851562 -25.683594 21.851562 -23.691406 C 21.851562 -21.699219 21.203125 -20.058594 19.910156 -18.714844 C 18.613281 -17.371094 17.023438 -16.722656 15.082031 -16.722656 Z M 25.335938 -23.640625 C 25.335938 -26.527344 24.238281 -29.015625 22.148438 -30.957031 C 20.109375 -32.851562 17.570312 -33.84375 14.582031 -33.84375 L 3.734375 -33.84375 L 3.734375 0 L 7.21875 0 L 7.21875 -13.390625 L 11.25 -13.390625 L 21.203125 0 L 25.882812 0 L 15.429688 -13.390625 C 18.066406 -13.539062 20.308594 -14.484375 22.148438 -16.226562 C 24.238281 -18.167969 25.335938 -20.65625 25.335938 -23.640625 Z M 25.335938 -23.640625 "/></g></g></g><g fill="#57af26" fill-opacity="1"><g transform="translate(332.840142, 575.169128)"><g><path d="M 15.878906 2.039062 L 31.207031 -33.84375 L 27.425781 -33.84375 L 15.878906 -6.570312 L 4.28125 -33.84375 L 0.496094 -33.84375 Z M 15.878906 2.039062 "/></g></g></g><g fill="#57af26" fill-opacity="1"><g transform="translate(404.370816, 575.169128)"><g><path d="M 7.21875 0 L 7.21875 -33.84375 L 3.734375 -33.84375 L 3.734375 0 Z M 7.21875 0 "/></g></g></g><g fill="#57af26" fill-opacity="1"><g transform="translate(455.146273, 575.169128)"><g><path d="M 34.789062 -10.351562 L 30.957031 -10.351562 C 29.765625 -8.164062 28.121094 -6.371094 26.03125 -5.078125 C 23.941406 -3.734375 21.601562 -3.085938 19.113281 -3.085938 C 15.378906 -3.085938 12.195312 -4.429688 9.554688 -7.21875 C 6.96875 -9.855469 5.722656 -13.089844 5.722656 -16.871094 C 5.722656 -20.65625 6.96875 -23.890625 9.554688 -26.578125 C 10.75 -27.824219 12.195312 -28.816406 13.835938 -29.566406 C 15.429688 -30.3125 17.023438 -30.710938 18.613281 -30.710938 C 20.15625 -30.710938 21.5 -30.511719 22.695312 -30.164062 C 26.328125 -29.066406 29.066406 -26.878906 30.910156 -23.542969 L 34.742188 -23.542969 C 33.445312 -26.726562 31.40625 -29.316406 28.570312 -31.308594 C 25.683594 -33.296875 22.546875 -34.292969 19.113281 -34.292969 C 14.382812 -34.292969 10.402344 -32.550781 7.117188 -29.117188 C 5.574219 -27.523438 4.378906 -25.632812 3.535156 -23.542969 C 2.636719 -21.453125 2.238281 -19.210938 2.238281 -16.871094 C 2.238281 -12.09375 3.832031 -8.0625 7.117188 -4.679688 C 10.402344 -1.195312 14.382812 0.496094 19.113281 0.496094 C 22.546875 0.496094 25.683594 -0.496094 28.621094 -2.488281 C 31.457031 -4.480469 33.496094 -7.066406 34.789062 -10.351562 Z M 34.789062 -10.351562 "/></g></g></g><g fill="#57af26" fill-opacity="1"><g transform="translate(531.256055, 575.169128)"><g><path d="M 23.839844 0 L 23.839844 -3.234375 L 7.21875 -3.234375 L 7.21875 -15.28125 L 23.34375 -15.28125 L 23.34375 -18.566406 L 7.21875 -18.566406 L 7.21875 -30.609375 L 23.839844 -30.609375 L 23.839844 -33.84375 L 3.734375 -33.84375 L 3.734375 0 Z M 23.839844 0 "/></g></g></g><g fill="#57af26" fill-opacity="1"><g transform="translate(598.65557, 575.169128)"><g><path d="M 13.089844 -15.925781 C 17.46875 -14.882812 20.457031 -13.738281 22.050781 -12.441406 C 23.144531 -11.546875 23.691406 -10.402344 23.691406 -9.007812 C 23.691406 -7.613281 23.394531 -6.46875 22.796875 -5.675781 C 21.300781 -3.582031 18.613281 -2.539062 14.832031 -2.539062 C 9.554688 -2.539062 6.570312 -4.332031 5.921875 -7.914062 L 1.839844 -7.914062 C 3.035156 -2.191406 7.367188 0.648438 14.832031 0.648438 C 18.167969 0.648438 20.953125 -0.0507812 23.195312 -1.542969 C 25.882812 -3.285156 27.273438 -5.875 27.273438 -9.257812 C 27.273438 -12.046875 26.179688 -14.183594 23.992188 -15.679688 C 22.449219 -16.773438 19.957031 -17.769531 16.523438 -18.664062 C 13.039062 -19.5625 10.800781 -20.308594 9.753906 -20.855469 C 7.464844 -22 6.320312 -23.59375 6.371094 -25.683594 C 6.371094 -26.777344 6.570312 -27.722656 7.066406 -28.421875 C 8.363281 -30.359375 10.652344 -31.355469 13.9375 -31.355469 C 18.566406 -31.355469 21.203125 -29.863281 21.898438 -26.976562 L 25.683594 -26.976562 C 24.4375 -31.855469 20.507812 -34.34375 13.9375 -34.34375 C 10.949219 -34.34375 8.3125 -33.546875 6.121094 -31.953125 C 3.882812 -30.359375 2.738281 -28.023438 2.738281 -24.835938 C 2.738281 -20.507812 6.222656 -17.519531 13.089844 -15.925781 Z M 13.089844 -15.925781 "/></g></g></g></svg>